<svg xmlns="http://www.w3.org/2000/svg" xmlns:xlink="http://www.w3.org/1999/xlink" viewBox="0 0 255.16 358.23"><defs><style>.cls-1{fill:#f49746;}.cls-2{fill:url(#linear-gradient);}.cls-3{fill:url(#linear-gradient-2);}.cls-4{fill:url(#linear-gradient-3);}.cls-5{fill:url(#linear-gradient-4);}.cls-6{fill:url(#linear-gradient-5);}.cls-7{fill:url(#linear-gradient-6);}.cls-8{fill:url(#linear-gradient-7);}.cls-9{fill:url(#linear-gradient-8);}.cls-10{fill:url(#linear-gradient-9);}.cls-11{fill:url(#linear-gradient-10);}.cls-12{fill:#fff;}</style><linearGradient id="linear-gradient" y1="55.83" x2="113.68" y2="55.83" gradientUnits="userSpaceOnUse"><stop offset="0" stop-color="#fe5f75"/><stop offset="1" stop-color="#fc9842"/></linearGradient><linearGradient id="linear-gradient-2" x1="2.53" y1="235.45" x2="48.51" y2="235.45" xlink:href="#linear-gradient"/><linearGradient id="linear-gradient-3" x1="29.31" y1="248.34" x2="146.02" y2="248.34" xlink:href="#linear-gradient"/><linearGradient id="linear-gradient-4" x1="133.89" y1="288.51" x2="255.16" y2="288.51" xlink:href="#linear-gradient"/><linearGradient id="linear-gradient-5" y1="165.73" x2="255.16" y2="165.73" xlink:href="#linear-gradient"/><linearGradient id="linear-gradient-6" x1="82.86" y1="53.05" x2="227.87" y2="53.05" xlink:href="#linear-gradient"/><linearGradient id="linear-gradient-7" x1="83.37" y1="193.01" x2="192.51" y2="193.01" xlink:href="#linear-gradient"/><linearGradient id="linear-gradient-8" x1="83.37" y1="111.16" x2="166.74" y2="111.16" xlink:href="#linear-gradient"/><linearGradient id="linear-gradient-9" y1="100.55" x2="93.47" y2="100.55" xlink:href="#linear-gradient"/><linearGradient id="linear-gradient-10" x1="93.47" y1="73.01" x2="227.87" y2="73.01" xlink:href="#linear-gradient"/></defs><g id="Layer_2" data-name="Layer 2"><g id="Layer_1-2" data-name="Layer 1"><polygon class="cls-1" points="72.25 18.19 0 111.66 93.47 62.65 113.68 39.92 82.86 0 72.25 18.19"/><polygon class="cls-1" points="2.53 163.71 5.56 253.14 48.51 307.2 29.3 184.93 2.53 163.71"/><polygon class="cls-1" points="48.51 307.2 133.9 358.23 146.02 304.17 120.25 280.93 83.37 138.44 29.3 184.93 48.51 307.2"/><polygon class="cls-1" points="133.9 358.23 230.91 326.9 255.16 268.8 192.5 218.78 146.02 304.17 133.9 358.23"/><polyline class="cls-1" points="83.37 138.44 192.5 218.78 255.16 268.8 227.87 106.11 155.62 81.35 93.47 62.65 83.37 138.44 66.5 152.95 29.3 184.93 2.53 163.71 0 111.66 83.37 138.44"/><polygon class="cls-1" points="82.86 0 130.86 34.86 210.19 65.18 227.87 106.11 113.68 39.92 82.86 0"/><polyline class="cls-1" points="83.37 138.44 120.25 280.93 146.02 304.17 192.5 218.78 157.64 81.85"/><polyline class="cls-1" points="83.37 138.44 130.36 101.56 166.74 118.23 90.95 83.87"/><polygon class="cls-1" points="0 111.66 93.47 62.65 83.37 138.44 0 111.66"/><polygon class="cls-1" points="113.68 39.92 93.47 62.65 227.87 106.11 113.68 39.92"/><path class="cls-1" d="M119.53,207.74c-1.7,1.6-3.52,3.1-5.1,4.82-3.26,3.55-6.77,6.95-9.5,10.89-3.54,5.12-4.5,11.26-5.15,17.37-.36,3.46-.57,6.93-1,10.37A9.88,9.88,0,0,1,97.36,254c-1-.5-2.27-.78-3-1.56a61.05,61.05,0,0,1-5.25-6.86,46.81,46.81,0,0,0-14.3-14.24,32.34,32.34,0,0,1-5.35-4.25,3.48,3.48,0,0,1-.76-2.92c.2-.65,1.51-1.24,2.4-1.37,5.27-.81,10.62-1.23,15.84-2.28a15.61,15.61,0,0,0,7-3.32c5.13-4.54,9.92-9.49,14.8-14.32a15.61,15.61,0,0,0,1.68-2.58c-2.62-.17-4.71-.41-6.8-.41-8.31,0-16.62,0-24.93.13a7.77,7.77,0,0,0-4,1.16c-5.32,3.62-10.47,7.49-15.79,11.11-1.44,1-3.58,2.29-4.85,1.85-2.23-.77-1.65-3.4-1.49-5.4a28.08,28.08,0,0,1,.79-5c2.11-7.77.81-15.49-.18-23.23a34.46,34.46,0,0,1-.37-5.06c.06-2,1.11-2.53,2.89-1.6a19.94,19.94,0,0,1,2.95,2c2.06,1.63,4.12,3.27,6.1,5,6.12,5.33,13,8.32,21.33,7.78,6.08-.39,12.2,0,18.31-.11,1.64,0,3.28-.35,5.38-.58a15.15,15.15,0,0,0-1.47-2.29c-5-5.05-9.88-10.29-15.23-15-2.08-1.81-5.18-2.81-8-3.36-4.56-.91-9.26-1.07-13.87-1.74-1-.14-2.4-1-2.6-1.75s.56-2.21,1.32-2.88c5.34-4.69,11-9,16.11-14,2.87-2.79,4.71-6.61,7.24-9.78,1-1.23,2.61-1.94,4-2.88a21.63,21.63,0,0,1,1.54,4.34c.75,5.46,1,11,2,16.4a16.4,16.4,0,0,0,3.2,7.57c4.41,5.14,9.33,9.83,14.06,14.69a15.61,15.61,0,0,0,1.86,1.31,44.5,44.5,0,0,0,.54-5c-.06-9.84-.08-19.68-.38-29.51a12.91,12.91,0,0,0-1.88-6.18c-3.09-5-6.63-9.63-9.81-14.54-.85-1.3-1.06-3-1.56-4.54a25.94,25.94,0,0,1,4.51-.5c7,.44,14,1.3,21,1.42,3.49.07,7-1.24,10.5-1.68,1.3-.17,2.68.39,4,.62-.27,1.4-.14,3.09-.9,4.16-3.26,4.63-6.8,9.08-10.21,13.61a15.19,15.19,0,0,0-3,10.16c.33,9.07.24,18.15.35,27.22a34.47,34.47,0,0,0,.44,3.45c1.14-.95,1.86-1.48,2.5-2.09q17.25-16.56,34.51-33.12a17.4,17.4,0,0,1,2.1-1.84c2.37-1.65,4.1-1.25,6.42,1.21,1.8,1.91,1.4,3.68-.18,5.38-4.57,4.9-9.14,9.8-13.76,14.65q-11.43,12-22.9,23.86c-.57.6-1.06,1.27-2,2.43a36,36,0,0,0,4,.48c17,.14,34.09.31,51.13.28,2.49,0,3.59,1,4.07,3.11a13.94,13.94,0,0,1,.41,3.52c-.13,3.87-1,4.62-4.79,4.64q-24.3.15-48.59.34c-1.22,0-2.45.22-4.33.4,1,1.22,1.51,1.94,2.12,2.56,11.37,11.67,22.67,23.39,34.17,34.91,2,2,1.83,3.54.65,5.55a13.24,13.24,0,0,1-.89,1.23c-3.09,4-4.05,4.24-7.9.93-4.05-3.47-7.88-7.2-11.74-10.89-7.55-7.2-15-14.46-22.57-21.68-.59-.57-1.25-1.06-2.38-2-.21,1.71-.45,2.84-.47,4-.25,14.5-.45,29-.71,43.5a37.81,37.81,0,0,1-.56,5.3c-.45,2.82-2.15,3.8-5.93,3.57-3.31-.21-4.19-.9-4.26-4.08-.34-15.85-.59-31.71-.89-47.57,0-2.6-.21-5.19-.32-7.78Z"/><polygon class="cls-2" points="72.25 18.19 0 111.66 93.47 62.65 113.68 39.92 82.86 0 72.25 18.19"/><polygon class="cls-3" points="2.53 163.71 5.56 253.14 48.51 307.2 29.3 184.93 2.53 163.71"/><polygon class="cls-4" points="48.51 307.2 133.9 358.23 146.02 304.17 120.25 280.93 83.37 138.44 29.3 184.93 48.51 307.2"/><polygon class="cls-5" points="133.9 358.23 230.91 326.9 255.16 268.8 192.5 218.78 146.02 304.17 133.9 358.23"/><polyline class="cls-6" points="83.37 138.44 192.5 218.78 255.16 268.8 227.87 106.11 155.62 81.35 93.47 62.65 83.37 138.44 66.5 152.95 29.3 184.93 2.53 163.71 0 111.66 83.37 138.44"/><polygon class="cls-7" points="82.86 0 130.86 34.86 210.19 65.18 227.87 106.11 113.68 39.92 82.86 0"/><polyline class="cls-8" points="83.37 138.44 120.25 280.93 146.02 304.17 192.5 218.78 157.64 81.85"/><polyline class="cls-9" points="83.37 138.44 130.36 101.56 166.74 118.23 90.95 83.87"/><polygon class="cls-10" points="0 111.66 93.47 62.65 83.37 138.44 0 111.66"/><polygon class="cls-11" points="113.68 39.92 93.47 62.65 227.87 106.11 113.68 39.92"/><path class="cls-12" d="M119.53,207.74c-1.7,1.6-3.52,3.1-5.1,4.82-3.26,3.55-6.77,6.95-9.5,10.89-3.54,5.12-4.5,11.26-5.15,17.37-.36,3.46-.57,6.93-1,10.37A9.88,9.88,0,0,1,97.36,254c-1-.5-2.27-.78-3-1.56a61.05,61.05,0,0,1-5.25-6.86,46.81,46.81,0,0,0-14.3-14.24,32.34,32.34,0,0,1-5.35-4.25,3.48,3.48,0,0,1-.76-2.92c.2-.65,1.51-1.24,2.4-1.37,5.27-.81,10.62-1.23,15.84-2.28a15.61,15.61,0,0,0,7-3.32c5.13-4.54,9.92-9.49,14.8-14.32a15.61,15.61,0,0,0,1.68-2.58c-2.62-.17-4.71-.41-6.8-.41-8.31,0-16.62,0-24.93.13a7.77,7.77,0,0,0-4,1.16c-5.32,3.62-10.47,7.49-15.79,11.11-1.44,1-3.58,2.29-4.85,1.85-2.23-.77-1.65-3.4-1.49-5.4a28.08,28.08,0,0,1,.79-5c2.11-7.77.81-15.49-.18-23.23a34.46,34.46,0,0,1-.37-5.06c.06-2,1.11-2.53,2.89-1.6a19.94,19.94,0,0,1,2.95,2c2.06,1.63,4.12,3.27,6.1,5,6.12,5.33,13,8.32,21.33,7.78,6.08-.39,12.2,0,18.31-.11,1.64,0,3.28-.35,5.38-.58a15.15,15.15,0,0,0-1.47-2.29c-5-5.05-9.88-10.29-15.23-15-2.08-1.81-5.18-2.81-8-3.36-4.56-.91-9.26-1.07-13.87-1.74-1-.14-2.4-1-2.6-1.75s.56-2.21,1.32-2.88c5.34-4.69,11-9,16.11-14,2.87-2.79,4.71-6.61,7.24-9.78,1-1.23,2.61-1.94,4-2.88a21.63,21.63,0,0,1,1.54,4.34c.75,5.46,1,11,2,16.4a16.4,16.4,0,0,0,3.2,7.57c4.41,5.14,9.33,9.83,14.06,14.69a15.61,15.61,0,0,0,1.86,1.31,44.5,44.5,0,0,0,.54-5c-.06-9.84-.08-19.68-.38-29.51a12.91,12.91,0,0,0-1.88-6.18c-3.09-5-6.63-9.63-9.81-14.54-.85-1.3-1.06-3-1.56-4.54a25.94,25.94,0,0,1,4.51-.5c7,.44,14,1.3,21,1.42,3.49.07,7-1.24,10.5-1.68,1.3-.17,2.68.39,4,.62-.27,1.4-.14,3.09-.9,4.16-3.26,4.63-6.8,9.08-10.21,13.61a15.19,15.19,0,0,0-3,10.16c.33,9.07.24,18.15.35,27.22a34.47,34.47,0,0,0,.44,3.45c1.14-.95,1.86-1.48,2.5-2.09q17.25-16.56,34.51-33.12a17.4,17.4,0,0,1,2.1-1.84c2.37-1.65,4.1-1.25,6.42,1.21,1.8,1.91,1.4,3.68-.18,5.38-4.57,4.9-9.14,9.8-13.76,14.65q-11.43,12-22.9,23.86c-.57.6-1.06,1.27-2,2.43a36,36,0,0,0,4,.48c17,.14,34.09.31,51.13.28,2.49,0,3.59,1,4.07,3.11a13.94,13.94,0,0,1,.41,3.52c-.13,3.87-1,4.62-4.79,4.64q-24.3.15-48.59.34c-1.22,0-2.45.22-4.33.4,1,1.22,1.51,1.94,2.12,2.56,11.37,11.67,22.67,23.39,34.17,34.91,2,2,1.83,3.54.65,5.55a13.24,13.24,0,0,1-.89,1.23c-3.09,4-4.05,4.24-7.9.93-4.05-3.47-7.88-7.2-11.74-10.89-7.55-7.2-15-14.46-22.57-21.68-.59-.57-1.25-1.06-2.38-2-.21,1.71-.45,2.84-.47,4-.25,14.5-.45,29-.71,43.5a37.81,37.81,0,0,1-.56,5.3c-.45,2.82-2.15,3.8-5.93,3.57-3.31-.21-4.19-.9-4.26-4.08-.34-15.85-.59-31.71-.89-47.57,0-2.6-.21-5.19-.32-7.78Z"/></g></g></svg>