<?xml version="1.0" encoding="iso-8859-1"?>
<!-- Generator: Adobe Illustrator 23.0.3, SVG Export Plug-In . SVG Version: 6.00 Build 0)  -->
<svg version="1.1" id="Capa_1" xmlns="http://www.w3.org/2000/svg" xmlns:xlink="http://www.w3.org/1999/xlink" x="0px" y="0px"
	 viewBox="0 0 511.998 511.998" style="enable-background:new 0 0 511.998 511.998;" xml:space="preserve">
<g>
	<g>
		<path style="fill:#915EB2;" d="M296.512,57.736l-33.555-33.555c-3.843-3.843-10.073-3.843-13.916,0l-33.555,33.555
			c-27.59,27.59-65.011,43.091-104.03,43.091H75.709c-5.435,0-9.84,4.406-9.84,9.84v70.164
			c0.952,76.393,20.875,265.663,190.13,323.667c169.255-58.004,189.179-247.274,190.13-323.667v-70.164
			c0-5.435-4.406-9.84-9.84-9.84h-35.748C361.523,100.827,324.102,85.326,296.512,57.736z"/>
		<path style="fill:#804EA0;" d="M424.218,321.932c-7.684,23.982-17.981,48.26-31.754,71.222
			c-42.438-4.476-88.897-6.812-136.464-6.812c-47.567,0-94.026,2.337-136.464,6.812c-13.773-22.962-24.071-47.241-31.755-71.222
			H424.218z"/>
		<path style="fill:#804EA0;" d="M446.13,110.671v70.163c-0.951,76.391-20.873,265.66-190.131,323.664
			c-7.614-2.604-14.922-5.486-21.932-8.604c149.069-66.202,167.278-242.105,168.189-315.06v-73.133c0-2.673-1.069-5.109-2.802-6.882
			c0.366,0.01,0.723,0.01,1.089,0.01h35.745C441.724,100.829,446.13,105.235,446.13,110.671z"/>
		<path style="fill:#FB5FA7;" d="M255.999,472.867c-59.731-23.364-103.672-68.588-130.69-134.563
			c-24.874-60.742-29.312-124.775-29.736-157.658v-50.114h15.883c47.232,0,91.636-18.393,125.035-51.791l19.508-19.507
			l19.509,19.507c33.398,33.398,77.802,51.791,125.034,51.791h15.883v50.114c-0.424,32.883-4.861,96.916-29.736,157.658
			C359.671,404.279,315.73,449.503,255.999,472.867z"/>
		<path style="fill:#FB4297;" d="M392.889,321.932c-1.911,5.466-3.971,10.931-6.198,16.367
			c-7.793,19.011-16.981,36.309-27.556,51.845c-32.962-2.505-67.747-3.802-103.135-3.802s-70.173,1.297-103.135,3.802
			c-10.575-15.536-19.764-32.834-27.556-51.845c-2.228-5.436-4.287-10.902-6.198-16.367H392.889z"/>
		<path style="fill:#FB4297;" d="M416.425,130.534v50.112c-0.426,32.883-4.862,96.917-29.735,157.654
			c-27.021,65.984-70.965,111.205-130.691,134.563c-7.565-2.961-14.882-6.268-21.932-9.931
			c48.647-25.219,85.154-67.004,108.749-124.632c24.873-60.736,29.309-124.77,29.735-157.654v-52.3
			c9.179,1.446,18.526,2.188,27.992,2.188H416.425z"/>
		<polygon style="fill:#915EB2;" points="254.179,388.686 255.999,390.507 257.819,388.686 		"/>
		<g>
			<path style="fill:#B9ACAC;" d="M299.873,165.853h-87.748c0,0,29.012-16.961,30.626-77.163V25.636h26.497v63.053
				C270.861,148.891,299.873,165.853,299.873,165.853z"/>
			<path style="fill:#9E9797;" d="M269.247,25.636v43.329c-4.159,1.406-8.614,2.159-13.248,2.159c-4.634,0-9.09-0.753-13.248-2.159
				V25.636H269.247z"/>
			<g>
				<g>
					<g>
						<polygon style="fill:#B9ACAC;" points="288.16,279.279 284.927,181.128 227.068,181.128 223.835,279.279 						"/>
						<polygon style="fill:#9E9797;" points="285.816,208.111 284.927,181.128 227.067,181.128 226.179,208.111 						"/>
						<polygon style="fill:#9E9797;" points="288.16,279.279 284.93,181.128 262.067,181.128 265.297,279.279 						"/>
					</g>
					<g>
						<path style="fill:#915EB2;" d="M323.274,161.745H188.721c-3.538,0-6.808,1.888-8.576,4.953l-3.424,5.934
							c-3.809,6.601,0.955,14.851,8.576,14.851h141.401c7.621,0,12.385-8.25,8.576-14.851l-3.424-5.934
							C330.081,163.633,326.812,161.745,323.274,161.745z"/>
					</g>
				</g>
			</g>
			<g>
				<g>
					<circle style="fill:#FB5FA7;" cx="255.997" cy="29.412" r="21.913"/>
					<path style="fill:#FB4297;" d="M277.913,29.415c0-12.104-9.813-21.917-21.917-21.917c-2.964,0-5.791,0.587-8.364,1.66
						c7.951,3.283,13.546,11.118,13.546,20.257c0,9.132-5.595,16.967-13.546,20.25c2.573,1.073,5.399,1.66,8.364,1.66
						C268.1,51.324,277.913,41.511,277.913,29.415z"/>
				</g>
			</g>
		</g>
		<g>
			<g>
				<path style="fill:#B18BC8;" d="M333.974,336.24v86.005c0,7.228-6.07,12.981-13.288,12.585
					c-20.714-1.168-42.379-1.782-64.687-1.782c-22.308,0-43.973,0.614-64.687,1.782c-7.218,0.396-13.288-5.357-13.288-12.585V336.24
					H333.974z"/>
				<path style="fill:#A176BD;" d="M333.974,336.24v52.251c-25.309-1.426-51.469-2.149-77.975-2.149
					c-26.507,0-52.667,0.723-77.975,2.149V336.24H333.974z"/>
				<path style="fill:#FAF7F7;" d="M301.903,336.24v65.618c-14.526-1-29.942-1.535-45.904-1.535s-31.378,0.535-45.904,1.535V336.24
					H301.903z"/>
				<path style="fill:#EFE2DD;" d="M301.903,336.24v50.845c-15.12-0.495-30.447-0.743-45.904-0.743
					c-15.456,0-30.784,0.248-45.904,0.743V336.24H301.903z"/>
			</g>
			<path style="fill:#B18BC8;" d="M482.155,271.754l-20.666,17.645c-9.746,8.321-15.359,20.493-15.359,33.308v44.474
				c0,6.844-6.063,12.092-12.836,11.107c-51.128-7.442-111.99-11.752-177.295-11.752s-126.166,4.31-177.295,11.752
				c-6.773,0.986-12.836-4.263-12.836-11.107v-44.474c0-12.815-5.613-24.987-15.359-33.308l-20.666-17.645
				c-3.967-3.387-1.572-9.882,3.645-9.882H478.51C483.727,261.871,486.122,268.366,482.155,271.754z"/>
			<path style="fill:#A176BD;" d="M482.152,271.751l-20.665,17.645c-9.743,8.327-15.357,20.496-15.357,33.309v44.478
				c0,6.842-6.06,12.09-12.833,11.11c-9.04-1.317-18.387-2.535-28.012-3.644c1.762-1.97,2.842-4.575,2.842-7.466v-44.478
				c0-12.813,5.614-24.982,15.357-33.309l20.665-17.645c3.971-3.386,1.574-9.882-3.644-9.882h38.002
				C483.726,261.869,486.122,268.364,482.152,271.751z"/>
			<path style="fill:#FAF7F7;" d="M61.43,261.869c30.481,10.255,38.113,51.449,38.113,60.836v18.863
				c48.132-5.713,101.66-8.713,156.455-8.713s108.324,3,156.455,8.713v-18.863c0-9.387,7.633-50.58,38.114-60.836H61.43z"/>
			<path style="fill:#EFE2DD;" d="M450.566,261.869c-30.477,10.258-38.111,51.449-38.111,60.836v18.863
				c-11.11-1.317-22.506-2.495-34.141-3.515v-15.348c0-9.387,7.634-50.577,38.111-60.836H450.566z"/>
		</g>
	</g>
	<g>
		<path d="M490.813,262.946c-1.922-5.209-6.751-8.575-12.303-8.575h-30.93c4.58-29.897,5.834-56.166,6.049-73.54v-24.792
			c0-4.143-3.358-7.5-7.5-7.5s-7.5,3.357-7.5,7.5l0,24.698c-0.214,17.237-1.491,43.651-6.229,73.634h-14.932
			c4.898-30.012,6.232-56.327,6.456-73.726v-50.114c0-4.143-3.358-7.5-7.5-7.5h-15.883c-20.244,0-40.024-3.515-58.792-10.447
			c-3.886-1.434-8.198,0.551-9.634,4.437s0.551,8.198,4.437,9.634c20.437,7.549,41.965,11.377,63.989,11.377h8.383l0,42.518
			c-0.222,17.251-1.582,43.718-6.662,73.822h-107.42l-1.956-59.389h33.81c6.29,0,11.924-3.252,15.069-8.7
			c3.146-5.447,3.146-11.951,0.002-17.399l-3.424-5.932c-3.097-5.37-8.873-8.706-15.072-8.706h-25.369
			c-7.65-8.277-19.73-27.081-21.093-63.936c8.936,8.108,18.602,15.332,28.855,21.509c1.211,0.729,2.545,1.076,3.863,1.076
			c2.543,0,5.024-1.294,6.432-3.631c2.137-3.548,0.994-8.157-2.554-10.295c-11.789-7.101-22.755-15.691-32.596-25.532l-4.063-4.063
			V50.386c0-0.048-0.006-0.094-0.007-0.142c0.28-0.278,0.551-0.565,0.819-0.854l13.649,13.651
			c29.205,29.203,68.033,45.286,109.333,45.286h35.748c1.29,0,2.34,1.05,2.34,2.341v12.381c0,4.143,3.358,7.5,7.5,7.5
			s7.5-3.357,7.5-7.5v-12.381c0-9.562-7.779-17.341-17.34-17.341h-35.748c-37.294,0-72.356-14.522-98.727-40.893l-17.022-17.023
			c0.403-1.938,0.617-3.944,0.617-5.999C285.41,13.194,272.216,0,255.998,0s-29.413,13.194-29.413,29.412
			c0,2.056,0.214,4.063,0.617,6.001l-17.019,17.019c-26.371,26.371-61.433,40.894-98.727,40.894H75.708
			c-9.561,0-17.34,7.779-17.34,17.341l0,70.258c0.215,17.208,1.46,43.509,6.046,73.446H33.488c-5.552,0-10.381,3.366-12.303,8.575
			c-1.921,5.21-0.435,10.905,3.789,14.512l20.667,17.645c8.089,6.905,12.729,16.967,12.729,27.604v44.475
			c0,5.443,2.36,10.605,6.475,14.164c3.424,2.962,7.772,4.561,12.238,4.561c0.898,0,1.802-0.065,2.703-0.196
			c8.167-1.189,16.562-2.28,25.114-3.292c33.489,63.375,83.485,106.837,148.669,129.176c0.788,0.271,1.61,0.405,2.432,0.405
			s1.644-0.135,2.432-0.405c65.177-22.337,115.183-65.8,148.673-129.176c8.551,1.013,16.944,2.103,25.11,3.292
			c5.385,0.782,10.83-0.807,14.942-4.364c4.115-3.559,6.475-8.721,6.475-14.164v-44.475c0-10.637,4.639-20.698,12.729-27.604
			l20.667-17.646C491.248,273.852,492.734,268.156,490.813,262.946z M98.761,289.544c-3.545-7.907-7.925-14.653-12.996-20.173
			h44.332c4.142,0,7.5-3.357,7.5-7.5s-3.358-7.5-7.5-7.5h-20.364c-5.088-30.156-6.439-56.655-6.66-73.726v-42.614h8.383
			c46.181,0,89.769-16.869,123.729-47.691c-1.368,36.835-13.444,55.631-21.092,63.905h-25.372c-6.199,0-11.975,3.336-15.072,8.704
			l-3.424,5.934c-3.144,5.448-3.143,11.953,0.003,17.4s8.779,8.699,15.069,8.699h33.81l-1.955,59.389h-54.064
			c-4.142,0-7.5,3.357-7.5,7.5s3.358,7.5,7.5,7.5h263.14c-5.07,5.517-9.446,12.267-12.99,20.173
			c-6.077,13.554-8.283,27.257-8.283,33.16v10.454c-46.176-5.111-97.469-7.805-148.956-7.805s-102.779,2.693-148.956,7.805v-10.454
			C107.043,316.801,104.837,303.098,98.761,289.544z M279.835,254.371H232.16l1.955-59.389h43.764L279.835,254.371z
			 M325.354,170.447l3.425,5.934c0.603,1.044,0.258,1.952,0,2.401c-0.259,0.448-0.874,1.2-2.08,1.2H185.297
			c-1.206,0-1.821-0.752-2.08-1.2c-0.259-0.449-0.604-1.357,0-2.401l3.425-5.935c0.427-0.741,1.224-1.201,2.08-1.201h134.553
			C324.129,169.245,324.926,169.705,325.354,170.447z M261.75,88.895c0.431,16.07,3.405,43.724,17.293,65.351h-46.089
			c13.888-21.626,16.861-49.28,17.293-65.351c0.002-0.067,0.003-0.134,0.003-0.201V58.258c1.86,0.37,3.78,0.568,5.747,0.568
			c1.968,0,3.89-0.198,5.75-0.568v30.436C261.748,88.761,261.749,88.827,261.75,88.895z M255.998,15
			c7.947,0,14.413,6.465,14.413,14.412s-6.465,14.413-14.413,14.413s-14.413-6.466-14.413-14.413S248.05,15,255.998,15z
			 M73.369,180.831v-70.164c0-1.291,1.05-2.341,2.34-2.341h35.748c41.3,0,80.129-16.083,109.333-45.286l13.648-13.648
			c0.266,0.287,0.535,0.572,0.813,0.848v19.134l-4.063,4.063c-31.982,31.981-74.503,49.595-119.731,49.595H95.573
			c-4.142,0-7.5,3.357-7.5,7.5l0,50.211c0.222,17.223,1.546,43.565,6.453,73.629h-14.93
			C74.851,224.35,73.582,197.897,73.369,180.831z M255.999,496.557c-58.47-20.668-103.841-59.647-135.016-115.929
			c5.293-0.545,10.662-1.047,16.07-1.526c9.779,16.708,21.059,31.883,33.58,45.171c0.489,4.769,2.684,9.271,6.19,12.586
			c3.5,3.309,8.112,5.241,12.888,5.462c18.723,15.724,40.092,28.352,63.557,37.53c0.878,0.344,1.805,0.516,2.732,0.516
			s1.854-0.172,2.732-0.516c23.475-9.182,44.856-21.817,63.583-37.551c4.767-0.225,9.368-2.138,12.861-5.441
			c3.505-3.315,5.7-7.816,6.19-12.585c12.519-13.287,23.8-28.463,33.58-45.173c5.41,0.479,10.781,0.981,16.076,1.526
			C359.845,436.912,314.467,475.89,255.999,496.557z M217.599,374.552c12.685-0.337,25.499-0.517,38.4-0.517s25.715,0.18,38.4,0.517
			v19.32c-12.492-0.698-25.372-1.051-38.4-1.051s-25.908,0.353-38.4,1.051V374.552z M204.981,407.336
			c1.519,1.418,3.553,2.137,5.632,2c14.624-1.005,29.894-1.515,45.386-1.515s30.762,0.51,45.386,1.515
			c0.172,0.012,0.343,0.018,0.515,0.018c1.894,0,3.725-0.717,5.118-2.018c1.52-1.419,2.382-3.404,2.382-5.482v-26.822
			c5.723,0.213,11.42,0.453,17.071,0.734v46.476c0,1.422-0.568,2.742-1.601,3.719c-1.023,0.967-2.35,1.466-3.759,1.378
			c-21.14-1.186-43.047-1.787-65.111-1.787s-43.971,0.602-65.111,1.787c-1.408,0.081-2.737-0.411-3.76-1.378
			c-1.032-0.977-1.601-2.297-1.601-3.719v-46.476c5.652-0.281,11.348-0.521,17.071-0.734v26.822
			C202.599,403.932,203.461,405.917,204.981,407.336z M341.47,376.605c5.635,0.345,11.237,0.716,16.778,1.128
			c-5.205,8.336-10.81,16.224-16.778,23.613V376.605z M299.016,441.337c-13.219,9.336-27.618,17.198-43.017,23.456
			c-15.4-6.258-29.797-14.119-43.016-23.456c14.152-0.519,28.546-0.787,43.016-0.787
			C270.47,440.551,284.864,440.819,299.016,441.337z M170.528,401.346c-5.968-7.39-11.574-15.277-16.778-23.613
			c5.542-0.413,11.143-0.784,16.778-1.128V401.346z M456.619,283.694c-11.433,9.76-17.989,23.979-17.989,39.012v44.475
			c0,1.484-0.806,2.403-1.287,2.819c-0.479,0.414-1.506,1.079-2.968,0.865c-53.168-7.739-114.85-11.83-178.375-11.83
			s-125.207,4.091-178.376,11.83c-1.461,0.214-2.488-0.451-2.967-0.865c-0.481-0.416-1.287-1.335-1.287-2.819v-44.475
			c0-15.032-6.557-29.252-17.989-39.012l-16.777-14.323H60.08c24.269,9.079,31.964,44.066,31.964,53.333v18.863
			c0,2.144,0.917,4.184,2.519,5.607c1.602,1.423,3.734,2.093,5.865,1.84c47.732-5.666,101.528-8.661,155.571-8.661
			s107.839,2.995,155.571,8.661c0.295,0.035,0.59,0.053,0.885,0.053c1.825,0,3.601-0.667,4.98-1.893
			c1.602-1.424,2.519-3.464,2.519-5.607v-18.863c0-9.267,7.695-44.254,31.964-53.333h21.477L456.619,283.694z"/>
		<path d="M162.326,221.66c0.113,0,0.228-0.002,0.342-0.008c4.138-0.186,7.342-3.69,7.157-7.828l-0.013-0.294
			c-0.186-4.138-3.694-7.377-7.829-7.156c-4.138,0.186-7.342,3.69-7.157,7.828l0.013,0.294
			C155.02,218.52,158.338,221.66,162.326,221.66z"/>
		<path d="M146.955,237.336c0.125,0,0.252-0.003,0.379-0.009l0.275-0.014c4.137-0.206,7.324-3.727,7.118-7.863
			c-0.206-4.138-3.717-7.313-7.863-7.119l-0.275,0.014c-4.137,0.206-7.324,3.727-7.118,7.863
			C139.67,234.219,142.984,237.336,146.955,237.336z"/>
		<path d="M177.322,237.425c0.125,0,0.252-0.003,0.378-0.009l0.275-0.014c4.137-0.206,7.324-3.726,7.119-7.863
			c-0.205-4.137-3.734-7.306-7.863-7.119l-0.275,0.014c-4.137,0.206-7.324,3.726-7.119,7.863
			C170.037,234.308,173.351,237.425,177.322,237.425z"/>
		<path d="M349.759,221.66c0.109,0,0.219-0.002,0.329-0.007c4.138-0.179,7.348-3.679,7.169-7.816l-0.013-0.294
			c-0.179-4.139-3.656-7.357-7.817-7.17c-4.138,0.179-7.348,3.679-7.169,7.816l0.013,0.294
			C342.445,218.512,345.765,221.66,349.759,221.66z"/>
		<path d="M334.297,222.331l-0.275,0.014c-4.137,0.206-7.324,3.726-7.119,7.863c0.199,4.011,3.513,7.128,7.484,7.128
			c0.125,0,0.252-0.003,0.378-0.009l0.275-0.014c4.137-0.206,7.324-3.726,7.119-7.863S338.421,222.138,334.297,222.331z"/>
		<path d="M365.134,237.416l0.275-0.014c4.137-0.206,7.324-3.727,7.118-7.863s-3.708-7.306-7.863-7.119l-0.275,0.014
			c-4.137,0.206-7.324,3.727-7.118,7.863c0.199,4.011,3.513,7.128,7.484,7.128C364.881,237.425,365.007,237.422,365.134,237.416z"/>
	</g>
</g>
<g>
</g>
<g>
</g>
<g>
</g>
<g>
</g>
<g>
</g>
<g>
</g>
<g>
</g>
<g>
</g>
<g>
</g>
<g>
</g>
<g>
</g>
<g>
</g>
<g>
</g>
<g>
</g>
<g>
</g>
</svg>
