<?xml version="1.0" encoding="iso-8859-1"?>
<!-- Generator: Adobe Illustrator 23.0.3, SVG Export Plug-In . SVG Version: 6.00 Build 0)  -->
<svg version="1.1" id="Capa_1" xmlns="http://www.w3.org/2000/svg" xmlns:xlink="http://www.w3.org/1999/xlink" x="0px" y="0px"
	 viewBox="0 0 512.003 512.003" style="enable-background:new 0 0 512.003 512.003;" xml:space="preserve">
<g>
	<g>
		<g>
			<g>
				<g>
					<g>
						<circle style="fill:#8DCAFC;" cx="110.501" cy="125.692" r="67.897"/>
						<path style="fill:#64B9FC;" d="M158.514,173.699c-16.357,16.357-38.974,22.627-60.131,18.801
							c13.137-2.365,25.728-8.636,35.884-18.801c26.513-26.513,26.513-69.502,0-96.014c-10.156-10.166-22.747-16.436-35.884-18.801
							c21.157-3.826,43.774,2.445,60.131,18.801C185.027,104.197,185.027,147.186,158.514,173.699z"/>
						<path style="fill:#FDE734;" d="M96.284,156.717l-24.65,24.65c-3.218-2.249-6.275-4.799-9.142-7.666
							c-2.867-2.867-5.418-5.924-7.666-9.142l24.65-24.65L96.284,156.717z"/>
						<polygon style="fill:#B9ACAC;" points="98.985,159.42 76.772,137.208 161.559,44.907 188.64,47.552 191.285,74.634 						"/>
					</g>
				</g>
				<g>
					<g>
						<g>
							<circle style="fill:#8DCAFC;" cx="351.207" cy="125.692" r="67.897"/>
							<path style="fill:#64B9FC;" d="M399.22,173.699c-16.357,16.357-38.974,22.627-60.131,18.801
								c13.137-2.365,25.728-8.636,35.884-18.801c26.513-26.513,26.513-69.502,0-96.014c-10.156-10.166-22.747-16.436-35.884-18.801
								c21.156-3.826,43.774,2.445,60.131,18.801C425.733,104.197,425.733,147.186,399.22,173.699z"/>
							<path style="fill:#9E9797;" d="M435.912,57.794L312.34,181.366c-3.218-2.249-6.275-4.799-9.142-7.666
								c-2.867-2.867-5.418-5.924-7.666-9.142L419.104,40.986L435.912,57.794z"/>
							<path style="fill:#FDE734;" d="M326.919,133.171l-31.387,31.387c2.249,3.218,4.799,6.275,7.666,9.142
								c2.867,2.867,5.924,5.418,9.142,7.666l31.387-31.387L326.919,133.171z"/>
						</g>
						<g>
							<path style="fill:#A176BD;" d="M404.959,66.97V32.329c0-2.088,1.306-3.954,3.268-4.669l54.486-19.844
								c3.967-1.445,7.814,2.402,6.369,6.369l-19.844,54.486c-0.715,1.962-2.58,3.268-4.669,3.268h-34.641
								C407.184,71.939,404.959,69.715,404.959,66.97z"/>
						</g>
					</g>
				</g>
			</g>
			<circle style="fill:#8DCAFC;" cx="230.076" cy="428.958" r="75.544"/>
			<path style="fill:#64B9FC;" d="M305.62,428.962c0,41.717-33.817,75.543-75.543,75.543c-4.442,0-8.794-0.387-13.018-1.123
				c35.516-6.161,62.526-37.146,62.526-74.421c0-37.285-27.01-68.269-62.526-74.43c4.223-0.735,8.576-1.123,13.018-1.123
				C271.803,353.409,305.62,387.235,305.62,428.962z"/>
			<g>
				<circle style="fill:#FB5FA7;" cx="291.441" cy="370.265" r="37.866"/>
			</g>
		</g>
	</g>
	<g>
		<path d="M148.953,190.561c3.563-2.114,4.735-6.716,2.621-10.278c-2.113-3.562-6.716-4.735-10.277-2.621
			c-17.945,10.652-39.598,11.066-57.542,2.19l12.527-12.528l9.57,9.57c1.438,1.438,3.357,2.197,5.306,2.197
			c1.073,0,2.156-0.23,3.172-0.705l7.912-3.695c3.753-1.753,5.374-6.216,3.621-9.969c-1.753-3.752-6.215-5.376-9.969-3.622
			l-3.15,1.472l-2.922-2.922l57.939-53.222c5.662,16.775,3.714,35.219-5.609,50.571c-2.15,3.54-1.023,8.153,2.517,10.304
			c1.217,0.739,2.56,1.09,3.887,1.09c2.533,0,5.006-1.284,6.417-3.608c12.787-21.054,14.47-46.764,4.65-69.252l16.738-15.375
			c1.735-1.593,2.62-3.909,2.392-6.252l-2.646-27.082c-0.349-3.566-3.17-6.387-6.736-6.735l-27.081-2.645
			c-2.33-0.227-4.657,0.656-6.252,2.391l-15.38,16.743c-28.28-12.335-61.531-6.136-83.469,15.802
			c-14.24,14.241-22.083,33.174-22.083,53.313s7.843,39.073,22.083,53.313c14.553,14.552,33.851,22.115,53.345,22.115
			C123.719,201.12,136.995,197.659,148.953,190.561z M67.794,168.399c-1.041-1.041-2.023-2.123-2.978-3.223l14.658-14.658
			l6.201,6.201L71.014,171.38C69.914,170.428,68.836,169.44,67.794,168.399z M164.552,52.735l17.223,1.682l1.683,17.224
			l-84.252,77.394l-12.047-12.047L164.552,52.735z M67.794,82.984c16.32-16.322,40.464-21.775,61.97-14.552l-53.222,57.938
			l-2.922-2.922l1.471-3.15c1.753-3.753,0.132-8.216-3.621-9.969c-3.754-1.754-8.217-0.132-9.969,3.622l-3.695,7.912
			c-1.335,2.858-0.739,6.247,1.491,8.477l9.57,9.57l-12.532,12.532c-4.067-8.216-6.231-17.315-6.231-26.751
			C50.104,109.559,56.386,94.392,67.794,82.984z"/>
		<path d="M473.23,3.668c-3.465-3.466-8.479-4.575-13.083-2.899l-54.485,19.844c-4.906,1.787-8.202,6.495-8.202,11.716v19.695
			l-8.438,8.438c-29.263-16.981-66.937-12.275-91.129,11.917c-14.24,14.24-22.083,33.174-22.083,53.313s7.843,39.073,22.083,53.314
			c14.699,14.698,34.007,22.047,53.313,22.047c19.308,0,38.615-7.349,53.314-22.047c24.192-24.192,28.898-61.866,11.916-91.129
			l8.438-8.438h19.695c5.223,0,9.931-3.297,11.715-8.201l19.846-54.487C477.807,12.146,476.696,7.132,473.23,3.668z M308.5,82.984
			c18.417-18.418,46.587-22.744,69.454-11.455l-80.913,80.913c-4.067-8.216-6.231-17.315-6.231-26.751
			C290.81,109.559,297.092,94.392,308.5,82.984z M308.5,168.399c-1.041-1.041-2.023-2.123-2.978-3.224l21.397-21.397l6.201,6.201
			l-21.395,21.395C310.626,170.423,309.544,169.443,308.5,168.399z M393.913,168.399c-11.775,11.775-27.238,17.663-42.707,17.661
			c-9.167-0.001-18.329-2.087-26.729-6.224l39.112-39.112c2.929-2.929,2.929-7.678,0-10.606c-2.93-2.929-7.678-2.929-10.607,0
			l-9.255,9.255l-6.201-6.201l61.057-61.057c1.249,2.743,3.458,4.952,6.201,6.201L376.31,106.79c-2.929,2.929-2.929,7.678,0,10.606
			c1.465,1.464,3.385,2.197,5.304,2.197s3.839-0.732,5.304-2.197l18.452-18.452C416.658,121.811,412.332,149.981,393.913,168.399z
			 M442.797,64.439h-19.732l10.416-10.415c2.93-2.929,2.93-7.677,0.001-10.606s-7.678-2.929-10.606,0l-10.416,10.416V34.101
			l47.717-17.379L442.797,64.439z"/>
		<path d="M350.794,217.572c-4.143,0-7.5,3.358-7.5,7.5v14.228c0,12.303-10.01,22.312-22.313,22.312h-61.094
			c-12.17,0-22.996,5.859-29.812,14.903c-6.815-9.044-17.641-14.903-29.812-14.903h-61.094c-12.303,0-22.313-10.009-22.313-22.312
			v-16.329c0-4.142-3.357-7.5-7.5-7.5s-7.5,3.358-7.5,7.5v16.329c0,20.574,16.738,37.312,37.313,37.312h61.094
			c12.303,0,22.312,10.009,22.312,22.312v24.429c0,4.142,3.357,7.5,7.5,7.5s7.5-3.358,7.5-7.5v-24.429
			c0-12.303,10.009-22.312,22.312-22.312h61.094c20.574,0,37.313-16.738,37.313-37.312v-14.228
			C358.294,220.93,354.937,217.572,350.794,217.572z"/>
		<path d="M218.326,454.194c-4.143,0-7.5,3.358-7.5,7.5s3.357,7.5,7.5,7.5h23.502c4.143,0,7.5-3.358,7.5-7.5s-3.357-7.5-7.5-7.5
			h-4.251v-61.33c0-2.744-1.498-5.268-3.906-6.583c-2.408-1.314-5.343-1.209-7.649,0.274l-11.751,7.555
			c-3.484,2.24-4.493,6.88-2.253,10.364c2.238,3.484,6.88,4.493,10.364,2.253l0.195-0.125v47.592H218.326z"/>
		<path d="M302.756,362.765h-3.814v-3.815c0-4.142-3.357-7.5-7.5-7.5s-7.5,3.358-7.5,7.5v3.815h-3.815c-4.143,0-7.5,3.358-7.5,7.5
			s3.357,7.5,7.5,7.5h3.815v3.814c0,4.142,3.357,7.5,7.5,7.5s7.5-3.358,7.5-7.5v-3.814h3.814c4.143,0,7.5-3.358,7.5-7.5
			S306.899,362.765,302.756,362.765z"/>
		<path d="M291.442,324.9c-17.225,0-32.237,9.651-39.918,23.828c-6.968-1.859-14.16-2.814-21.448-2.814
			c-19.042,0-37.646,6.611-52.385,18.614c-14.522,11.827-24.719,28.365-28.713,46.566c-0.888,4.046,1.673,8.045,5.719,8.933
			c0.542,0.119,1.082,0.176,1.614,0.176c3.446,0,6.55-2.39,7.319-5.894c6.787-30.939,34.731-53.396,66.445-53.396
			c5.635,0,11.196,0.693,16.595,2.046c-0.387,2.38-0.596,4.818-0.596,7.306c0,25.015,20.352,45.365,45.366,45.365
			c1.796,0,3.563-0.117,5.305-0.321c0.909,4.471,1.375,9.042,1.375,13.648c0,37.52-30.524,68.045-68.045,68.045
			c-15.749,0-30.529-5.225-42.744-15.111c-11.87-9.607-20.252-23.051-23.602-37.855c-0.914-4.04-4.925-6.574-8.971-5.66
			c-4.04,0.914-6.574,4.93-5.66,8.97c4.091,18.077,14.317,34.486,28.796,46.204c14.701,11.898,33.233,18.451,52.181,18.451
			c45.791,0,83.045-37.254,83.045-83.045c0-6.03-0.656-12.014-1.936-17.855c15.151-7.355,25.622-22.895,25.622-40.837
			C336.807,345.251,316.456,324.9,291.442,324.9z M291.442,400.63c-16.744,0-30.366-13.622-30.366-30.365
			s13.622-30.366,30.366-30.366c16.743,0,30.365,13.622,30.365,30.366S308.185,400.63,291.442,400.63z"/>
		<path d="M158.421,214.262h14.651c4.143,0,7.5-3.358,7.5-7.5s-3.357-7.5-7.5-7.5h-14.651c-4.143,0-7.5,3.358-7.5,7.5
			S154.279,214.262,158.421,214.262z"/>
		<path d="M150.921,230.035c0,4.142,3.357,7.5,7.5,7.5h65.779c4.143,0,7.5-3.358,7.5-7.5s-3.357-7.5-7.5-7.5h-65.779
			C154.279,222.535,150.921,225.893,150.921,230.035z"/>
		<path d="M400.023,214.262h14.65c4.143,0,7.5-3.358,7.5-7.5s-3.357-7.5-7.5-7.5h-14.65c-4.143,0-7.5,3.358-7.5,7.5
			S395.88,214.262,400.023,214.262z"/>
		<path d="M465.802,222.535h-65.779c-4.143,0-7.5,3.358-7.5,7.5s3.357,7.5,7.5,7.5h65.779c4.143,0,7.5-3.358,7.5-7.5
			S469.945,222.535,465.802,222.535z"/>
	</g>
</g>
<g>
</g>
<g>
</g>
<g>
</g>
<g>
</g>
<g>
</g>
<g>
</g>
<g>
</g>
<g>
</g>
<g>
</g>
<g>
</g>
<g>
</g>
<g>
</g>
<g>
</g>
<g>
</g>
<g>
</g>
</svg>
