<?xml version="1.0" encoding="iso-8859-1"?>
<!-- Generator: Adobe Illustrator 23.0.3, SVG Export Plug-In . SVG Version: 6.00 Build 0)  -->
<svg version="1.1" id="Capa_1" xmlns="http://www.w3.org/2000/svg" xmlns:xlink="http://www.w3.org/1999/xlink" x="0px" y="0px"
	 viewBox="0 0 511.996 511.996" style="enable-background:new 0 0 511.996 511.996;" xml:space="preserve">
<g>
	<g>
		<g>
			<g>
				<g>
					<g>
						<circle style="fill:#FDEF63;" cx="255.998" cy="283.958" r="220.542"/>
						<path style="fill:#F3D730;" d="M336.659,78.64c-4.89,40.17-39.2,71.38-80.66,71.38s-75.77-31.21-80.66-71.38
							C227.069,58.34,284.929,58.34,336.659,78.64z"/>
						<path style="fill:#F3D730;" d="M411.94,439.906c-47.913,47.913-112.401,69.18-175.014,63.768
							c49.925-4.3,98.654-25.556,136.866-63.768c86.125-86.125,86.125-225.765,0-311.89c-38.212-38.212-86.94-59.468-136.866-63.778
							c62.613-5.401,127.101,15.855,175.014,63.778C498.076,214.141,498.076,353.781,411.94,439.906z"/>
						<circle style="fill:#E0D3CE;" cx="255.998" cy="283.958" r="175.694"/>
						<path style="fill:#CDBFBB;" d="M319.069,119.93c-14.91,18.35-37.64,30.09-63.07,30.09s-48.16-11.74-63.07-30.09
							C233.439,104.37,278.559,104.37,319.069,119.93z"/>
						<path style="fill:#CDBFBB;" d="M380.239,408.185c-42.326,42.326-100.851,58.551-155.597,48.652
							c33.994-6.12,66.574-22.346,92.854-48.652c68.606-68.606,68.606-179.846,0-248.451c-26.28-26.306-58.86-42.532-92.854-48.652
							c54.746-9.9,113.271,6.326,155.597,48.652C448.845,228.339,448.845,339.579,380.239,408.185z"/>
						<path style="fill:#FB5FA7;" d="M431.692,283.958c0,97.033-78.661,175.694-175.694,175.694S80.304,380.991,80.304,283.958
							H431.692z"/>
						<path style="fill:#FB4297;" d="M431.688,283.959c0,97.028-78.661,175.689-175.689,175.689c-5.948,0-11.834-0.292-17.636-0.877
							c88.763-8.839,158.075-83.733,158.075-174.813H431.688z"/>
						<path style="fill:#FB4297;" d="M431.688,283.959c0,7.19-0.428,14.276-1.273,21.236h-83.744
							c-10.78,0-19.556,8.776-19.556,19.556v31.661c0,17.26-14.046,31.306-31.306,31.306h-79.622
							c-17.26,0-31.306-14.046-31.306-31.306v-31.661c0-10.78-8.776-19.556-19.556-19.556H81.583
							c-0.845-6.96-1.273-14.046-1.273-21.236H431.688z"/>
					</g>
				</g>
			</g>
			<path style="fill:#915EB2;" d="M431.69,232.782c0-28.53-23.128-51.658-51.658-51.658H131.965
				c-28.53,0-51.658,23.128-51.658,51.658v51.54h85.016c22.33,0,40.432,18.102,40.432,40.432v31.653
				c0,5.763,4.672,10.435,10.435,10.435h79.615c5.763,0,10.435-4.672,10.435-10.435v-31.653c0-22.33,18.102-40.432,40.432-40.432
				h85.016V232.782z"/>
			<path style="fill:#804EA0;" d="M431.688,232.784v51.54h-35.261v-51.54c0-28.53-23.125-51.655-51.655-51.655h35.261
				C408.564,181.129,431.688,204.254,431.688,232.784z"/>
			<g>
				<path style="fill:#FDEF63;" d="M393.777,226.825c-10.853,0.177-19.598,9.027-19.598,19.931H137.819
					c0-10.905-8.745-19.754-19.598-19.931c2.953-25.723,24.794-45.696,51.311-45.696h172.934
					C368.982,181.129,390.824,201.102,393.777,226.825z"/>
			</g>
			<path style="fill:#5B3573;" d="M275.881,294.326c0-11.73-10.159-21.088-22.158-19.755c-9.023,1.002-16.344,8.233-17.451,17.243
				c-0.867,7.055,1.977,13.479,6.826,17.623v13.388c0,7.125,5.776,12.901,12.901,12.901h0c7.125,0,12.901-5.776,12.901-12.901
				v-13.388C273.167,305.79,275.881,300.379,275.881,294.326z"/>
		</g>
		<g>
			<circle style="fill:#FB5FA7;" cx="255.999" cy="68.761" r="61.261"/>
			<path style="fill:#FB4297;" d="M317.258,68.759c0,33.831-27.424,61.266-61.255,61.266c-5.061,0-9.987-0.616-14.693-1.774
				c26.735-6.585,46.573-30.722,46.573-59.492S268.045,15.862,241.31,9.278c4.706-1.158,9.632-1.774,14.693-1.774
				C289.834,7.504,317.258,34.928,317.258,68.759z"/>
		</g>
	</g>
	<g>
		<path d="M417.248,122.708c-25.899-25.899-57.841-45.269-92.546-56.215C323.5,29.626,293.154,0,255.999,0
			c-37.155,0-67.5,29.626-68.703,66.493c-34.705,10.945-66.648,30.315-92.548,56.215c-40.877,40.877-64.544,95.188-66.64,152.926
			c-2.084,57.433,17.287,113.016,54.547,156.509c1.483,1.731,3.584,2.621,5.699,2.621c1.727,0,3.462-0.593,4.876-1.804
			c3.146-2.695,3.511-7.43,0.815-10.575c-34.801-40.624-52.895-92.548-50.947-146.206c1.958-53.938,24.067-104.674,62.257-142.863
			c23.377-23.377,52.008-41.08,83.147-51.47c1.96,10.132,6.148,19.476,12.038,27.503c-27.828,8.829-53.272,24.265-74.079,45.073
			c-7.918,7.917-15.122,16.569-21.429,25.718c-19.111,9.817-32.225,29.722-32.225,52.644v51.54c0,0.015,0.002,0.03,0.002,0.045
			c0,0.037-0.005,0.072-0.005,0.109c0.137,48.736,19.192,94.556,53.655,129.02c34.601,34.601,80.604,53.656,129.538,53.656
			c48.933,0,94.937-19.055,129.538-53.656c34.499-34.5,53.555-80.369,53.655-129.158c0-0.007-0.001-0.013-0.001-0.02v-51.535
			c0-22.923-13.115-42.829-32.228-52.646c-6.308-9.149-13.511-17.8-21.427-25.716c-20.802-20.802-46.256-36.242-74.081-45.071
			c5.891-8.027,10.079-17.372,12.04-27.505c31.138,10.391,59.77,28.094,83.145,51.47c83.065,83.065,83.065,218.222,0,301.287
			c-38.358,38.359-89.326,60.476-143.514,62.275c-53.936,1.792-105.992-16.635-146.602-51.88c-3.13-2.715-7.864-2.381-10.58,0.748
			c-2.715,3.128-2.38,7.865,0.748,10.58c41.545,36.058,94.278,55.671,149.247,55.671c2.557,0,5.12-0.042,7.685-0.127
			c58.005-1.926,112.563-25.6,153.623-66.66c43.071-43.071,66.791-100.337,66.791-161.25
			C484.039,223.046,460.32,165.78,417.248,122.708z M255.999,15c29.644,0,53.761,24.117,53.761,53.761
			c0,29.644-24.117,53.761-53.761,53.761s-53.761-24.117-53.761-53.761C202.238,39.117,226.356,15,255.999,15z M107.764,363.583
			h45.365c4.109,5.779,7.37,12.197,9.59,19.083h-42.934C115.337,376.554,111.32,370.183,107.764,363.583z M100.621,348.583
			c-1.99-4.785-3.749-9.665-5.286-14.623c0.185-0.001,0.37-0.009,0.554-0.009c16.112,0,30.963,5.47,42.825,14.632H100.621z
			 M132.073,397.667h33.716c0.198,2.144,0.313,4.313,0.313,6.508c0,6.891-1,13.615-2.936,20.095
			c-9.289-6.173-18.032-13.314-26.098-21.38C135.359,401.18,133.699,399.435,132.073,397.667z M411.375,348.583h-38.092
			c11.862-9.162,26.713-14.632,42.825-14.632c0.184,0,0.368,0.008,0.552,0.009C415.124,338.919,413.365,343.799,411.375,348.583z
			 M358.869,363.583h45.364c-3.555,6.599-7.573,12.97-12.021,19.083h-42.933C351.499,375.781,354.76,369.362,358.869,363.583z
			 M348.832,424.268c-1.936-6.478-2.935-13.203-2.935-20.094c0-2.195,0.115-4.363,0.313-6.508h33.714
			c-1.626,1.768-3.285,3.514-4.994,5.223C366.863,410.955,358.12,418.096,348.832,424.268z M424.191,232.782v44.04h-29.069
			c-4.143,0-7.5,3.358-7.5,7.5s3.357,7.5,7.5,7.5h28.883c-0.423,9.243-1.594,18.35-3.477,27.255
			c-1.474-0.076-2.949-0.125-4.418-0.125c-46.986,0-85.212,38.231-85.212,85.223c0,9.653,1.586,19.051,4.718,28.025
			c-24.187,13.031-51.369,19.952-79.616,19.952c-28.247,0-55.428-6.921-79.615-19.951c3.132-8.976,4.718-18.374,4.718-28.026
			c0-46.992-38.226-85.223-85.212-85.223c-1.47,0-2.945,0.049-4.42,0.125c-1.883-8.905-3.053-18.012-3.477-27.255h77.33
			c18.159,0,32.933,14.773,32.933,32.933v31.653c0,9.89,8.046,17.936,17.936,17.936h79.614c9.89,0,17.936-8.046,17.936-17.936
			v-31.653c0-18.159,14.773-32.933,32.933-32.933h15.457c4.143,0,7.5-3.358,7.5-7.5s-3.357-7.5-7.5-7.5h-15.457
			c-26.43,0-47.933,21.502-47.933,47.933v31.653c0,1.619-1.316,2.936-2.936,2.936h-79.614c-1.619,0-2.936-1.317-2.936-2.936v-31.653
			c0-26.43-21.503-47.933-47.933-47.933H87.808v-44.04c0-23.72,18.801-43.123,42.282-44.11
			c-10.466,9.351-17.611,22.41-19.321,37.298c-0.241,2.103,0.417,4.21,1.813,5.801c1.396,1.591,3.399,2.519,5.516,2.553
			c6.738,0.11,12.221,5.688,12.221,12.433c0,4.142,3.357,7.5,7.5,7.5h51.998c4.143,0,7.5-3.358,7.5-7.5s-3.357-7.5-7.5-7.5h-45.553
			c-2.449-8.522-8.956-15.406-17.271-18.366c5.217-18.799,22.437-32.262,42.538-32.262h172.935
			c20.102,0,37.321,13.462,42.538,32.262c-8.314,2.96-14.821,9.844-17.271,18.366H222.807c-4.143,0-7.5,3.358-7.5,7.5
			s3.357,7.5,7.5,7.5h151.372c4.143,0,7.5-3.358,7.5-7.5c0-6.745,5.482-12.322,12.221-12.433c2.116-0.035,4.119-0.962,5.516-2.553
			c1.396-1.591,2.054-3.698,1.813-5.801c-1.709-14.887-8.855-27.947-19.321-37.298C405.389,189.659,424.191,209.062,424.191,232.782
			z M383.017,173.7c-0.989-0.049-1.983-0.076-2.984-0.076H131.965c-1.001,0-1.996,0.026-2.985,0.076
			c2.593-2.982,5.292-5.877,8.088-8.673c20.834-20.834,46.722-35.801,74.987-43.427c11.925,9.934,27.247,15.922,43.945,15.922
			c16.698,0,32.021-5.988,43.946-15.923c28.259,7.624,54.157,22.6,74.984,43.428C377.725,167.823,380.424,170.719,383.017,173.7z"/>
		<path d="M274.256,273.918c-5.795-5.187-13.569-7.67-21.361-6.802c-12.421,1.379-22.543,11.381-24.067,23.782
			c-0.978,7.954,1.526,15.816,6.771,21.673v10.253c0,11.25,9.152,20.401,20.401,20.401s20.401-9.152,20.401-20.401v-10.253
			c4.472-4.993,6.98-11.468,6.98-18.246C283.381,286.547,280.055,279.109,274.256,273.918z M264.028,303.735
			c-1.667,1.425-2.627,3.508-2.627,5.702v13.388c0,2.979-2.423,5.401-5.401,5.401s-5.401-2.423-5.401-5.401v-13.388
			c0-2.193-0.96-4.277-2.627-5.702c-3.226-2.756-4.776-6.768-4.255-11.006c0.686-5.582,5.242-10.083,10.835-10.704
			c0.486-0.054,0.971-0.081,1.45-0.081c3.064,0,5.952,1.094,8.251,3.151c2.624,2.349,4.129,5.713,4.129,9.23
			C268.381,297.941,266.794,301.371,264.028,303.735z"/>
		<path d="M232.977,76.261h15.522v15.523c0,4.142,3.357,7.5,7.5,7.5s7.5-3.358,7.5-7.5V76.261h15.522c4.143,0,7.5-3.358,7.5-7.5
			s-3.357-7.5-7.5-7.5h-15.522V45.738c0-4.142-3.357-7.5-7.5-7.5s-7.5,3.358-7.5,7.5v15.522h-15.522c-4.143,0-7.5,3.358-7.5,7.5
			S228.834,76.261,232.977,76.261z"/>
	</g>
</g>
<g>
</g>
<g>
</g>
<g>
</g>
<g>
</g>
<g>
</g>
<g>
</g>
<g>
</g>
<g>
</g>
<g>
</g>
<g>
</g>
<g>
</g>
<g>
</g>
<g>
</g>
<g>
</g>
<g>
</g>
</svg>
