<?xml version="1.0" encoding="iso-8859-1"?>
<!-- Generator: Adobe Illustrator 23.0.3, SVG Export Plug-In . SVG Version: 6.00 Build 0)  -->
<svg version="1.1" id="Capa_1" xmlns="http://www.w3.org/2000/svg" xmlns:xlink="http://www.w3.org/1999/xlink" x="0px" y="0px"
	 viewBox="0 0 512 512" style="enable-background:new 0 0 512 512;" xml:space="preserve">
<g>
	<g>
		<g>
			<g>
				<path style="fill:#64B9FC;" d="M484.5,440.162h-457c-11.046,0-20-8.954-20-20V91.838c0-11.046,8.954-20,20-20h457
					c11.046,0,20,8.954,20,20v328.324C504.5,431.208,495.546,440.162,484.5,440.162z"/>
				<path style="fill:#31A7FB;" d="M504.5,91.84v328.32c0,11.05-8.95,20-20,20H454c11.05,0,20-8.95,20-20V91.84
					c0-11.05-8.95-20-20-20h30.5C495.55,71.84,504.5,80.79,504.5,91.84z"/>
			</g>
		</g>
		<g>
			<circle style="fill:#FB5FA7;" cx="111.878" cy="192.503" r="68.325"/>
			<path style="fill:#FB4297;" d="M160.194,240.814c-16.46,16.46-39.22,22.77-60.51,18.92c13.22-2.38,25.89-8.69,36.11-18.92
				c26.68-26.68,26.68-69.94,0-96.62c-10.22-10.23-22.89-16.54-36.11-18.92c21.29-3.85,44.05,2.46,60.51,18.92
				C186.874,170.874,186.874,214.134,160.194,240.814z"/>
			<path style="fill:#FDE734;" d="M97.571,223.724l-24.805,24.805c-3.239-2.263-6.315-4.83-9.2-7.715
				c-2.885-2.885-5.452-5.961-7.715-9.2l24.805-24.805L97.571,223.724z"/>
			<polygon style="fill:#B9ACAC;" points="100.289,226.445 77.936,204.092 163.258,111.21 190.51,113.871 193.172,141.123 			"/>
		</g>
		<g>
			<path style="fill:#1785F8;" d="M183.172,401.272H56.372c-5.523,0-10-4.477-10-10v-91.699c0-5.523,4.477-10,10-10h126.799
				c5.523,0,10,4.477,10,10v91.699C193.172,396.795,188.694,401.272,183.172,401.272z"/>
			<path style="fill:#1576F7;" d="M193.17,299.57v91.7c0,5.52-4.48,10-10,10h-34.46c5.53,0,10-4.48,10-10v-91.7
				c0-5.52-4.47-10-10-10h34.46C188.69,289.57,193.17,294.05,193.17,299.57z"/>
		</g>
		<g>
			<path style="fill:#B5DBFD;" d="M193.172,327.905H46.372v-28.332c0-5.523,4.477-10,10-10h126.799c5.523,0,10,4.477,10,10V327.905z
				"/>
			<path style="fill:#8DCAFC;" d="M193.17,299.57v28.34h-34.46v-28.34c0-5.52-4.47-10-10-10h34.46
				C188.69,289.57,193.17,294.05,193.17,299.57z"/>
		</g>
		<g>
			<path style="fill:#B5DBFD;" d="M464,401.383H244.47c-5.523,0-10-4.477-10-10V121.21c0-5.523,4.477-10,10-10H464
				c5.523,0,10,4.477,10,10v270.174C474,396.906,469.523,401.383,464,401.383z"/>
			<path style="fill:#8DCAFC;" d="M474,121.21v270.17c0,5.53-4.48,10-10,10h-29.88c5.52,0,10-4.47,10-10V121.21
				c0-5.52-4.48-10-10-10H464C469.52,111.21,474,115.69,474,121.21z"/>
		</g>
		<g>
			<g>
				<g>
					<path style="fill:#FB5FA7;" d="M299.343,184.049h-31.369c-2.761,0-5-2.239-5-5V147.68c0-2.761,2.239-5,5-5h31.369
						c2.761,0,5,2.239,5,5v31.369C304.343,181.81,302.104,184.049,299.343,184.049z"/>
					<path style="fill:#FB4297;" d="M304.345,147.68v31.37c0,2.76-2.24,5-5,5h-20.74c2.76,0,5-2.24,5-5v-31.37c0-2.76-2.24-5-5-5
						h20.74C302.105,142.68,304.345,144.92,304.345,147.68z"/>
				</g>
			</g>
			<g>
				<g>
					<path style="fill:#FB5FA7;" d="M369.972,184.049h-31.369c-2.761,0-5-2.239-5-5V147.68c0-2.761,2.239-5,5-5h31.369
						c2.761,0,5,2.239,5,5v31.369C374.972,181.81,372.734,184.049,369.972,184.049z"/>
					<path style="fill:#FB4297;" d="M374.974,147.68v31.37c0,2.76-2.24,5-5,5h-20.74c2.76,0,5-2.24,5-5v-31.37c0-2.76-2.24-5-5-5
						h20.74C372.734,142.68,374.974,144.92,374.974,147.68z"/>
				</g>
			</g>
			<g>
				<g>
					<path style="fill:#20B69F;" d="M440.602,184.049h-31.369c-2.761,0-5-2.239-5-5V147.68c0-2.761,2.239-5,5-5h31.369
						c2.761,0,5,2.239,5,5v31.369C445.602,181.81,443.364,184.049,440.602,184.049z"/>
					<path style="fill:#17998C;" d="M445.604,147.68v31.37c0,2.76-2.24,5-5,5h-20.74c2.76,0,5-2.24,5-5v-31.37c0-2.76-2.24-5-5-5
						h20.74C443.364,142.68,445.604,144.92,445.604,147.68z"/>
				</g>
			</g>
		</g>
		<g>
			<g>
				<g>
					<path style="fill:#E0D3CE;" d="M299.343,251.354h-31.369c-2.761,0-5-2.239-5-5v-31.369c0-2.761,2.239-5,5-5h31.369
						c2.761,0,5,2.239,5,5v31.369C304.343,249.115,302.104,251.354,299.343,251.354z"/>
					<path style="fill:#CDBFBB;" d="M304.345,214.985v31.37c0,2.76-2.24,5-5,5h-20.74c2.76,0,5-2.24,5-5v-31.37c0-2.76-2.24-5-5-5
						h20.74C302.105,209.985,304.345,212.225,304.345,214.985z"/>
				</g>
			</g>
			<g>
				<g>
					<path style="fill:#E0D3CE;" d="M369.972,251.354h-31.369c-2.761,0-5-2.239-5-5v-31.369c0-2.761,2.239-5,5-5h31.369
						c2.761,0,5,2.239,5,5v31.369C374.972,249.115,372.734,251.354,369.972,251.354z"/>
					<path style="fill:#CDBFBB;" d="M374.974,214.985v31.37c0,2.76-2.24,5-5,5h-20.74c2.76,0,5-2.24,5-5v-31.37c0-2.76-2.24-5-5-5
						h20.74C372.734,209.985,374.974,212.225,374.974,214.985z"/>
				</g>
			</g>
			<g>
				<g>
					<path style="fill:#E0D3CE;" d="M440.602,251.354h-31.369c-2.761,0-5-2.239-5-5v-31.369c0-2.761,2.239-5,5-5h31.369
						c2.761,0,5,2.239,5,5v31.369C445.602,249.115,443.364,251.354,440.602,251.354z"/>
					<path style="fill:#CDBFBB;" d="M445.604,214.985v31.37c0,2.76-2.24,5-5,5h-20.74c2.76,0,5-2.24,5-5v-31.37c0-2.76-2.24-5-5-5
						h20.74C443.364,209.985,445.604,212.225,445.604,214.985z"/>
				</g>
			</g>
		</g>
		<g>
			<g>
				<g>
					<path style="fill:#E0D3CE;" d="M299.343,318.659h-31.369c-2.761,0-5-2.239-5-5V282.29c0-2.761,2.239-5,5-5h31.369
						c2.761,0,5,2.239,5,5v31.369C304.343,316.421,302.104,318.659,299.343,318.659z"/>
					<path style="fill:#CDBFBB;" d="M304.345,282.29v31.37c0,2.76-2.24,5-5,5h-20.74c2.76,0,5-2.24,5-5v-31.37c0-2.76-2.24-5-5-5
						h20.74C302.105,277.29,304.345,279.53,304.345,282.29z"/>
				</g>
			</g>
			<g>
				<g>
					<path style="fill:#A176BD;" d="M369.972,318.659h-31.369c-2.761,0-5-2.239-5-5V282.29c0-2.761,2.239-5,5-5h31.369
						c2.761,0,5,2.239,5,5v31.369C374.972,316.421,372.734,318.659,369.972,318.659z"/>
					<path style="fill:#915EB2;" d="M374.974,282.29v31.37c0,2.76-2.24,5-5,5h-20.74c2.76,0,5-2.24,5-5v-31.37c0-2.76-2.24-5-5-5
						h20.74C372.734,277.29,374.974,279.53,374.974,282.29z"/>
				</g>
			</g>
			<g>
				<g>
					<path style="fill:#E0D3CE;" d="M440.602,318.659h-31.369c-2.761,0-5-2.239-5-5V282.29c0-2.761,2.239-5,5-5h31.369
						c2.761,0,5,2.239,5,5v31.369C445.602,316.421,443.364,318.659,440.602,318.659z"/>
					<path style="fill:#CDBFBB;" d="M445.604,282.29v31.37c0,2.76-2.24,5-5,5h-20.74c2.76,0,5-2.24,5-5v-31.37c0-2.76-2.24-5-5-5
						h20.74C443.364,277.29,445.604,279.53,445.604,282.29z"/>
				</g>
			</g>
		</g>
	</g>
	<g>
		<path d="M484.5,64.338h-95.586c-4.142,0-7.5,3.357-7.5,7.5s3.358,7.5,7.5,7.5H484.5c6.893,0,12.5,5.607,12.5,12.5v328.324
			c0,6.893-5.607,12.5-12.5,12.5h-457c-6.893,0-12.5-5.607-12.5-12.5V91.838c0-6.893,5.607-12.5,12.5-12.5h328.423
			c4.142,0,7.5-3.357,7.5-7.5s-3.358-7.5-7.5-7.5H27.5c-15.164,0-27.5,12.337-27.5,27.5v328.324c0,15.163,12.336,27.5,27.5,27.5h457
			c15.164,0,27.5-12.337,27.5-27.5V91.838C512,76.675,499.664,64.338,484.5,64.338z"/>
		<path d="M59.805,161.064c2.144-3.544,1.009-8.155-2.535-10.299c-3.545-2.145-8.156-1.009-10.299,2.535
			c-18.094,29.91-13.451,68.079,11.29,92.818c14.321,14.322,33.363,22.21,53.617,22.21c20.253,0,39.295-7.888,53.617-22.209
			c22.225-22.226,28.35-55.478,15.875-83.971l16.876-15.502c1.734-1.593,2.62-3.908,2.391-6.252l-2.661-27.252
			c-0.348-3.566-3.169-6.388-6.735-6.736l-27.252-2.661c-2.348-0.228-4.659,0.656-6.252,2.391l-15.497,16.87
			c-22.486-9.833-48.21-8.231-69.345,4.454c-3.551,2.132-4.702,6.739-2.571,10.29c1.407,2.344,3.89,3.642,6.438,3.642
			c1.313,0,2.644-0.345,3.853-1.07c15.437-9.268,33.93-11.16,50.737-5.463l-53.643,58.397l-2.999-2.999l1.495-3.2
			c1.753-3.753,0.131-8.216-3.622-9.969c-3.751-1.752-8.216-0.132-9.969,3.621l-3.719,7.962c-1.335,2.858-0.739,6.246,1.492,8.478
			l9.664,9.663l-12.693,12.693C48.294,201.274,48.796,179.264,59.805,161.064z M154.888,235.513
			c-11.489,11.489-26.763,17.816-43.01,17.816c-9.525,0-18.709-2.19-26.999-6.305l12.691-12.691l9.664,9.664
			c1.438,1.438,3.357,2.196,5.305,2.196c1.074,0,2.157-0.23,3.172-0.705l7.961-3.719c3.753-1.753,5.375-6.216,3.622-9.969
			c-1.753-3.753-6.217-5.374-9.969-3.621l-3.2,1.494l-2.998-2.998l58.393-53.64C176.875,194.722,171.463,218.938,154.888,235.513z
			 M166.251,119.038l17.394,1.698l1.698,17.394l-84.834,77.928l-12.187-12.187L166.251,119.038z M80.656,217.419l6.307,6.307
			l-14.815,14.815c-1.121-0.97-2.222-1.969-3.28-3.028c-1.06-1.06-2.064-2.156-3.031-3.275L80.656,217.419z"/>
		<path d="M56.373,408.772h126.799c9.649,0,17.5-7.851,17.5-17.5v-91.699c0-3.016-0.767-5.856-2.116-8.335
			c-2.967-5.456-8.751-9.168-15.386-9.168H56.37c-9.649,0-17.5,7.851-17.5,17.5l0.002,91.702
			C38.873,400.922,46.723,408.772,56.373,408.772z M185.67,299.57v20.84H53.873v-20.837c0-1.379,1.122-2.5,2.5-2.5h126.799
			c1.033,0,1.921,0.63,2.302,1.525C185.6,298.897,185.67,299.226,185.67,299.57z M183.171,393.772H56.373
			c-1.378,0-2.5-1.121-2.5-2.5V335.41h131.799v55.862C185.671,392.651,184.55,393.772,183.171,393.772z"/>
		<path d="M234.471,349.537c-4.142,0-7.5,3.357-7.5,7.5v34.346c0,9.649,7.851,17.5,17.5,17.5H464c9.649,0,17.5-7.851,17.5-17.5
			V121.21c0-9.649-7.851-17.5-17.5-17.5H244.471c-9.649,0-17.5,7.851-17.5,17.5v202.837c0,4.143,3.358,7.5,7.5,7.5
			s7.5-3.357,7.5-7.5V121.21c0-1.379,1.122-2.5,2.5-2.5H464c1.378,0,2.5,1.121,2.5,2.5v270.173c0,1.379-1.122,2.5-2.5,2.5H244.471
			c-1.378,0-2.5-1.121-2.5-2.5v-34.346C241.971,352.895,238.613,349.537,234.471,349.537z"/>
		<path d="M267.974,191.549h31.369c6.893,0,12.5-5.607,12.5-12.5V147.68c0-6.893-5.607-12.5-12.5-12.5h-31.369
			c-6.893,0-12.5,5.607-12.5,12.5v31.369C255.474,185.941,261.081,191.549,267.974,191.549z M270.474,150.18h26.369v26.369h-26.369
			V150.18z"/>
		<path d="M338.604,191.549h31.369c6.893,0,12.5-5.607,12.5-12.5V147.68c0-6.893-5.607-12.5-12.5-12.5h-31.369
			c-6.893,0-12.5,5.607-12.5,12.5v31.369C326.104,185.941,331.711,191.549,338.604,191.549z M341.104,150.18h26.369v26.369h-26.369
			V150.18z"/>
		<path d="M409.233,191.549h31.369c6.893,0,12.5-5.607,12.5-12.5V147.68c0-6.893-5.607-12.5-12.5-12.5h-31.369
			c-6.893,0-12.5,5.607-12.5,12.5v31.369C396.733,185.941,402.341,191.549,409.233,191.549z M411.733,150.18h26.369v26.369h-26.369
			V150.18z"/>
		<path d="M255.474,246.354c0,6.893,5.607,12.5,12.5,12.5h31.369c6.893,0,12.5-5.607,12.5-12.5v-31.369
			c0-6.893-5.607-12.5-12.5-12.5h-31.369c-6.893,0-12.5,5.607-12.5,12.5V246.354z M270.474,217.485h26.369v26.369h-26.369V217.485z"
			/>
		<path d="M326.104,246.354c0,6.893,5.607,12.5,12.5,12.5h31.369c6.893,0,12.5-5.607,12.5-12.5v-31.369
			c0-6.893-5.607-12.5-12.5-12.5h-31.369c-6.893,0-12.5,5.607-12.5,12.5V246.354z M341.104,217.485h26.369v26.369h-26.369V217.485z"
			/>
		<path d="M396.733,246.354c0,6.893,5.607,12.5,12.5,12.5h31.369c6.893,0,12.5-5.607,12.5-12.5v-31.369
			c0-6.893-5.607-12.5-12.5-12.5h-31.369c-6.893,0-12.5,5.607-12.5,12.5V246.354z M411.733,217.485h26.369v26.369h-26.369V217.485z"
			/>
		<path d="M255.474,313.659c0,6.893,5.607,12.5,12.5,12.5h31.369c6.893,0,12.5-5.607,12.5-12.5V282.29c0-6.893-5.607-12.5-12.5-12.5
			h-31.369c-6.893,0-12.5,5.607-12.5,12.5V313.659z M270.474,284.79h26.369v26.369h-26.369V284.79z"/>
		<path d="M326.104,313.659c0,6.893,5.607,12.5,12.5,12.5h31.369c6.893,0,12.5-5.607,12.5-12.5V282.29c0-6.893-5.607-12.5-12.5-12.5
			h-31.369c-6.893,0-12.5,5.607-12.5,12.5V313.659z M341.104,284.79h26.369v26.369h-26.369V284.79z"/>
		<path d="M396.733,313.659c0,6.893,5.607,12.5,12.5,12.5h31.369c6.893,0,12.5-5.607,12.5-12.5V282.29c0-6.893-5.607-12.5-12.5-12.5
			h-31.369c-6.893,0-12.5,5.607-12.5,12.5V313.659z M411.733,284.79h26.369v26.369h-26.369V284.79z"/>
		<path d="M358.163,352.489l-3.875,3.875l-3.875-3.876c-2.929-2.928-7.678-2.928-10.606,0c-2.929,2.93-2.929,7.678,0,10.607
			l9.179,9.179c1.406,1.406,3.314,2.196,5.303,2.196s3.897-0.79,5.303-2.197l9.178-9.179c2.929-2.929,2.929-7.678,0-10.606
			C365.841,349.561,361.092,349.56,358.163,352.489z"/>
		<path d="M139.944,350.292H80.657c-4.142,0-7.5,3.357-7.5,7.5s3.358,7.5,7.5,7.5h59.287c4.142,0,7.5-3.357,7.5-7.5
			S144.086,350.292,139.944,350.292z"/>
	</g>
</g>
<g>
</g>
<g>
</g>
<g>
</g>
<g>
</g>
<g>
</g>
<g>
</g>
<g>
</g>
<g>
</g>
<g>
</g>
<g>
</g>
<g>
</g>
<g>
</g>
<g>
</g>
<g>
</g>
<g>
</g>
</svg>
