<?xml version="1.0" encoding="iso-8859-1"?>
<!-- Generator: Adobe Illustrator 23.0.3, SVG Export Plug-In . SVG Version: 6.00 Build 0)  -->
<svg version="1.1" id="Capa_1" xmlns="http://www.w3.org/2000/svg" xmlns:xlink="http://www.w3.org/1999/xlink" x="0px" y="0px"
	 viewBox="0 0 512 512" style="enable-background:new 0 0 512 512;" xml:space="preserve">
<g>
	<g>
		<path style="fill:#D9ECFD;" d="M475.95,74.61V494.5c0,5.52-4.48,10-10,10H46.05c-5.52,0-10-4.48-10-10V74.61c0-5.52,4.48-10,10-10
			h419.9C471.47,64.61,475.95,69.09,475.95,74.61z"/>
		<path style="fill:#B5DBFD;" d="M411.42,136.03c-7.01,7.37-15.96,12.57-25.68,15.1c6.61,6.96,11.36,15.62,13.56,25.11
			c3.47,15-5.74,30.28-20.52,34.58c-4.93,1.44-10.03,2.17-15.17,2.17c-9.46,0-18.8-2.51-27.02-7.25
			c-12.88-7.44-22.22-20.02-25.62-34.5c-0.49-2.11-0.73-4.22-0.76-6.3c-2.71,1.54-5.57,2.86-8.56,3.94l-17.08,6.17
			c-5.64,2.04-10.98,4.84-15.85,8.34c-7.6,5.46-17.84,5.46-25.44,0h-0.01c-4.86-3.5-10.2-6.3-15.84-8.34l-17.08-6.17
			c-2.99-1.08-5.85-2.4-8.56-3.94c-0.03,2.09-0.27,4.19-0.76,6.3c-3.4,14.48-12.74,27.06-25.62,34.5
			c-8.22,4.74-17.56,7.25-27.02,7.25c-5.14,0-10.24-0.73-15.17-2.17c-14.78-4.3-23.99-19.58-20.52-34.58
			c2.2-9.49,6.95-18.15,13.56-25.11c-9.81-2.55-18.84-7.83-25.88-15.32c-10.54-11.21-10.54-28.77,0-39.97
			c4.04-4.3,8.75-7.86,13.87-10.61c-6.77-5.51-12.14-12.6-15.59-20.62h314.68c-3.45,8.02-8.82,15.11-15.59,20.62
			c5.24,2.81,10.04,6.47,14.14,10.9C422.4,107.47,422.07,124.82,411.42,136.03z"/>
		<path style="fill:#B5DBFD;" d="M475.95,74.61V494.5c0,5.52-4.48,10-10,10h-39.06c5.52,0,10-4.48,10-10V74.61c0-5.52-4.48-10-10-10
			h39.06C471.47,64.61,475.95,69.09,475.95,74.61z"/>
		<g>
			<path style="fill:#A176BD;" d="M254.939,167.143c-6.37-4.573-13.339-8.241-20.714-10.904l-17.079-6.166
				c-14.418-5.205-24.105-19.001-24.105-34.33V21.226L256,7.5l62.959,13.726v94.517c0,15.329-9.687,29.126-24.105,34.331
				l-17.079,6.165c-7.375,2.663-14.344,6.331-20.714,10.904L256,167.904L254.939,167.143z"/>
			<path style="fill:#915EB2;" d="M318.96,21.23v94.51c0,15.33-9.69,29.13-24.11,34.33l-17.07,6.17
				c-7.38,2.66-14.35,6.33-20.72,10.9L256,167.9l-1.06-0.76c-5.81-4.17-12.12-7.59-18.79-10.18l0.26-0.19
				c6.37-4.57,13.34-8.24,20.71-10.9l17.08-6.17c14.42-5.2,24.11-19,24.11-34.33V16.73L318.96,21.23z"/>
			<path style="fill:#B5DBFD;" d="M318.956,103.951v11.795c0,15.322-9.684,29.124-24.1,34.326l-17.078,6.165
				c-7.378,2.662-14.344,6.334-20.718,10.905l-1.06,0.76l-1.06-0.76c-6.375-4.571-13.34-8.244-20.718-10.905l-17.078-6.165
				c-4.733-1.707-8.956-4.344-12.491-7.653L318.956,103.951z"/>
			<path style="fill:#8DCAFC;" d="M318.96,103.95v11.8c0,15.32-9.69,29.12-24.1,34.32l-17.08,6.17c-7.38,2.66-14.35,6.33-20.72,10.9
				L256,167.9l-1.06-0.76c-5.81-4.17-12.11-7.58-18.77-10.17c-0.01,0-0.01-0.01-0.02-0.01l0.26-0.19
				c6.37-4.57,13.34-8.24,20.71-10.9l17.08-6.17c12.61-4.55,21.61-15.68,23.67-28.65L318.96,103.95z"/>
			<path style="fill:#FDE734;" d="M260.071,40.725l7.135,9.758l11.485,3.77c3.243,1.064,4.513,4.975,2.516,7.742l-7.076,9.801
				l-0.037,12.088c-0.01,3.413-3.337,5.83-6.586,4.785L256,84.969l-11.508,3.701c-3.249,1.045-6.576-1.372-6.586-4.785
				l-0.037-12.088l-7.076-9.801c-1.998-2.767-0.727-6.678,2.516-7.742l11.485-3.77l7.135-9.758
				C253.944,37.97,258.056,37.97,260.071,40.725z"/>
		</g>
		<g>
			<path style="fill:#64B9FC;" d="M411.792,357.194H91.511c-6.756,0-11.568-6.562-9.538-13.006l14.697-46.639
				c1.312-4.163,5.173-6.994,9.538-6.994h320.281c6.756,0,11.568,6.562,9.538,13.006L421.329,350.2
				C420.017,354.363,416.157,357.194,411.792,357.194z"/>
			<path style="fill:#31A7FB;" d="M436.03,303.56l-14.7,46.64c-1.31,4.16-5.17,6.99-9.54,6.99h-32.8c4.37,0,8.23-2.83,9.54-6.99
				l14.7-46.64c2.03-6.44-2.78-13.01-9.54-13.01h32.8C433.25,290.55,438.06,297.12,436.03,303.56z"/>
		</g>
		<g>
			<path style="fill:#64B9FC;" d="M411.792,455.285H91.511c-6.756,0-11.568-6.562-9.538-13.006l14.697-46.639
				c1.312-4.163,5.173-6.994,9.538-6.994h320.281c6.756,0,11.568,6.562,9.538,13.006l-14.697,46.639
				C420.017,452.454,416.157,455.285,411.792,455.285z"/>
			<path style="fill:#31A7FB;" d="M436.03,401.65l-14.7,46.64c-1.31,4.16-5.17,7-9.54,7h-32.8c4.37,0,8.23-2.84,9.54-7l14.7-46.64
				c2.03-6.44-2.78-13-9.54-13h32.8C433.25,388.65,438.06,395.21,436.03,401.65z"/>
		</g>
		<g>
			<g>
				<g>
					<g>
						<path style="fill:#FDE734;" d="M372.194,132.873c-9.805,0-18.641-4.138-24.859-10.759c-3.325-3.541-3.325-9.037,0-12.578
							c6.218-6.622,15.055-10.759,24.859-10.759c9.796,0,18.635,4.136,24.856,10.756c3.328,3.541,3.327,9.04-0.001,12.581
							C390.827,128.735,381.992,132.873,372.194,132.873z"/>
					</g>
				</g>
				<g>
					<g>
						<path style="fill:#FDE734;" d="M380.719,72.76c-8.491,4.902-18.212,5.737-26.909,3.112c-4.65-1.404-7.398-6.163-6.289-10.893
							c2.075-8.844,7.658-16.845,16.149-21.747c8.484-4.898,18.207-5.735,26.904-3.113c4.652,1.403,7.401,6.165,6.29,10.896
							C394.786,59.86,389.204,67.861,380.719,72.76z"/>
					</g>
				</g>
				<g>
					<g>
						<path style="fill:#FDE734;" d="M363.641,158.89c-8.491-4.902-18.212-5.737-26.909-3.112c-4.65,1.404-7.398,6.163-6.289,10.893
							c2.075,8.844,7.658,16.845,16.149,21.747c8.484,4.898,18.207,5.735,26.904,3.113c4.652-1.403,7.401-6.165,6.29-10.896
							C377.708,171.79,372.126,163.789,363.641,158.89z"/>
					</g>
				</g>
			</g>
			<g>
				<g>
					<g>
						<path style="fill:#FDE734;" d="M139.806,132.873c9.805,0,18.641-4.138,24.859-10.759c3.325-3.541,3.325-9.037,0-12.578
							c-6.218-6.622-15.055-10.759-24.859-10.759c-9.796,0-18.635,4.136-24.856,10.756c-3.328,3.541-3.327,9.04,0.001,12.581
							C121.174,128.735,130.008,132.873,139.806,132.873z"/>
					</g>
				</g>
				<g>
					<g>
						<path style="fill:#FDE734;" d="M131.282,72.76c8.491,4.902,18.212,5.737,26.909,3.112c4.65-1.404,7.398-6.163,6.289-10.893
							c-2.075-8.844-7.658-16.845-16.149-21.747c-8.484-4.898-18.207-5.735-26.904-3.113c-4.652,1.403-7.401,6.165-6.29,10.896
							C117.214,59.86,122.797,67.861,131.282,72.76z"/>
					</g>
				</g>
				<g>
					<g>
						<path style="fill:#FDE734;" d="M148.36,158.89c8.491-4.902,18.212-5.737,26.909-3.112c4.65,1.404,7.398,6.163,6.289,10.893
							c-2.075,8.844-7.658,16.845-16.149,21.747c-8.484,4.898-18.207,5.735-26.904,3.113c-4.652-1.403-7.401-6.165-6.29-10.896
							C134.292,171.79,139.875,163.789,148.36,158.89z"/>
					</g>
				</g>
			</g>
		</g>
	</g>
	<g>
		<path d="M475.945,143.26c-4.143,0-7.5,3.358-7.5,7.5V494.5c0,1.378-1.121,2.5-2.5,2.5H46.055c-1.379,0-2.5-1.122-2.5-2.5V265.073
			c0-4.142-3.357-7.5-7.5-7.5s-7.5,3.358-7.5,7.5V494.5c0,9.649,7.851,17.5,17.5,17.5h419.891c9.649,0,17.5-7.851,17.5-17.5V150.76
			C483.445,146.618,480.088,143.26,475.945,143.26z"/>
		<path d="M465.945,57.109H402.87c0.508-1.43,0.945-2.89,1.295-4.379c2.012-8.56-3.008-17.253-11.426-19.792
			c-10.952-3.302-22.916-1.919-32.818,3.798c-8.03,4.636-14.267,11.867-17.735,20.372h-15.727V21.226
			c0-3.526-2.457-6.577-5.902-7.328L257.598,0.172c-1.053-0.229-2.143-0.229-3.195,0l-62.959,13.726
			c-3.445,0.751-5.902,3.802-5.902,7.328v35.883h-15.728c-3.467-8.505-9.705-15.736-17.734-20.372
			c-9.903-5.717-21.863-7.102-32.818-3.798c-8.418,2.539-13.438,11.232-11.426,19.792c0.35,1.489,0.787,2.949,1.295,4.379H46.055
			c-9.649,0-17.5,7.851-17.5,17.5v157.475c0,4.142,3.357,7.5,7.5,7.5s7.5-3.358,7.5-7.5V74.609c0-1.378,1.121-2.5,2.5-2.5h72.372
			c2.672,2.774,5.725,5.195,9.104,7.146c6.367,3.676,13.584,5.561,20.836,5.561c4.032,0,8.077-0.583,11.991-1.765
			c5.437-1.642,9.441-5.859,11.061-10.942h14.121v43.634c0,12.328,5.202,23.828,13.822,31.984c0.063,0.063,0.129,0.122,0.195,0.182
			c4.262,3.984,9.342,7.161,15.041,9.218l17.079,6.166c6.726,2.428,13.08,5.773,18.888,9.942l1.06,0.761
			c1.307,0.939,2.841,1.408,4.375,1.408c1.535,0,3.069-0.47,4.377-1.41l1.057-0.76c5.809-4.168,12.163-7.514,18.889-9.942
			l17.079-6.166c17.38-6.274,29.058-22.906,29.058-41.385V72.109h14.121c1.62,5.084,5.624,9.301,11.061,10.942
			c3.915,1.182,7.958,1.765,11.99,1.765c7.253,0,14.47-1.885,20.837-5.561c3.38-1.951,6.432-4.372,9.104-7.146h72.372
			c1.379,0,2.5,1.122,2.5,2.5v43.161c0,4.142,3.357,7.5,7.5,7.5s7.5-3.358,7.5-7.5V74.609
			C483.445,64.959,475.595,57.109,465.945,57.109z M156.023,68.692c-7.105,2.147-14.562,1.284-20.991-2.427
			c-6.423-3.708-10.896-9.733-12.595-16.965c-0.206-0.879,0.29-1.739,1.154-2c7.111-2.144,14.563-1.282,20.988,2.427
			c6.429,3.711,10.902,9.736,12.598,16.965C157.383,67.571,156.887,68.43,156.023,68.692z M200.541,27.267L256,15.177l55.459,12.09
			V98.56l-104.6,35.203c-3.987-5.024-6.318-11.335-6.318-18.021V27.267z M292.308,143.019l-17.079,6.166
			c-6.766,2.443-13.216,5.663-19.229,9.595c-6.012-3.932-12.463-7.152-19.229-9.594l-13.851-5l88.538-29.797v1.355
			C311.459,127.922,303.763,138.883,292.308,143.019z M376.969,66.264c-6.428,3.711-13.884,4.573-20.991,2.427
			c-0.864-0.261-1.36-1.121-1.154-2c1.695-7.229,6.169-13.253,12.598-16.965c4.111-2.374,8.644-3.582,13.239-3.582
			c2.584,0,5.189,0.382,7.749,1.154c0.864,0.261,1.36,1.12,1.154,2C387.864,56.531,383.392,62.556,376.969,66.264z"/>
		<path d="M230.377,74.231l0.029,9.677c0.013,3.987,1.945,7.766,5.171,10.109c2.164,1.572,4.763,2.391,7.386,2.391
			c1.285,0,2.577-0.197,3.825-0.598L256,92.847l9.212,2.962c3.795,1.222,7.986,0.55,11.211-1.792
			c3.226-2.343,5.158-6.122,5.171-10.109l0.029-9.677l5.663-7.845c2.334-3.232,2.992-7.426,1.76-11.218
			c-1.231-3.792-4.229-6.798-8.017-8.041l-9.193-3.018l-5.711-7.811c-0.001,0-0.001,0-0.001,0
			c-2.353-3.218-6.138-5.139-10.124-5.139s-7.771,1.921-10.125,5.14l-5.711,7.811l-9.193,3.018
			c-3.788,1.243-6.785,4.249-8.017,8.041c-1.232,3.792-0.574,7.985,1.759,11.217L230.377,74.231z M247.134,57.609
			c1.49-0.489,2.79-1.433,3.716-2.699l5.15-7.044l5.15,7.044c0.926,1.266,2.226,2.21,3.716,2.699l8.292,2.722l-5.108,7.075
			c-0.918,1.272-1.414,2.799-1.419,4.367l-0.026,8.727l-8.309-2.671c-1.492-0.479-3.1-0.479-4.592,0l-8.309,2.671l-0.026-8.727
			c-0.005-1.568-0.501-3.095-1.419-4.367l-5.107-7.075L247.134,57.609z"/>
		<path d="M89.518,295.295L74.82,341.933c-1.694,5.375-0.755,11.064,2.578,15.609s8.477,7.151,14.112,7.151h320.281
			c7.677,0,14.384-4.919,16.69-12.24l14.697-46.639c1.694-5.375,0.755-11.064-2.578-15.609c-3.333-4.545-8.477-7.151-14.112-7.151
			h-66.991c-4.143,0-7.5,3.358-7.5,7.5s3.357,7.5,7.5,7.5h66.991c1.103,0,1.736,0.64,2.016,1.021c0.28,0.381,0.7,1.178,0.368,2.229
			l-14.697,46.64c-0.329,1.045-1.287,1.748-2.384,1.748H91.511c-1.103,0-1.736-0.64-2.016-1.021c-0.28-0.381-0.7-1.178-0.368-2.23
			l14.697-46.64c0.329-1.045,1.287-1.748,2.384-1.748h220.299c4.143,0,7.5-3.358,7.5-7.5s-3.357-7.5-7.5-7.5H106.208
			C98.531,283.055,91.824,287.974,89.518,295.295z"/>
		<path d="M327.012,316.374H125.395c-4.143,0-7.5,3.358-7.5,7.5s3.357,7.5,7.5,7.5h201.617c4.143,0,7.5-3.358,7.5-7.5
			S331.154,316.374,327.012,316.374z"/>
		<path d="M370.178,331.374c4.143,0,7.5-3.358,7.5-7.5s-3.357-7.5-7.5-7.5h-0.104c-4.143,0-7.5,3.358-7.5,7.5s3.357,7.5,7.5,7.5
			H370.178z"/>
		<path d="M392.606,331.374c4.143,0,7.5-3.358,7.5-7.5s-3.357-7.5-7.5-7.5h-0.104c-4.143,0-7.5,3.358-7.5,7.5s3.357,7.5,7.5,7.5
			H392.606z"/>
		<path d="M426.489,381.146H106.208c-7.677,0-14.384,4.919-16.69,12.24L74.82,440.025c-1.694,5.375-0.754,11.064,2.578,15.608
			c3.333,4.545,8.477,7.152,14.112,7.152h320.281c7.677,0,14.384-4.919,16.69-12.24l14.697-46.639
			c1.694-5.375,0.754-11.064-2.578-15.608C437.269,383.753,432.125,381.146,426.489,381.146z M428.873,399.397l-14.697,46.64
			c-0.329,1.045-1.287,1.748-2.384,1.748H91.511c-1.103,0-1.736-0.64-2.016-1.021c-0.28-0.382-0.699-1.178-0.368-2.229
			l14.697-46.641c0.329-1.045,1.287-1.748,2.384-1.748h320.281c1.103,0,1.736,0.64,2.016,1.021
			C428.785,397.55,429.204,398.346,428.873,399.397z"/>
		<path d="M327.012,414.466H125.395c-4.143,0-7.5,3.358-7.5,7.5s3.357,7.5,7.5,7.5h201.617c4.143,0,7.5-3.358,7.5-7.5
			S331.154,414.466,327.012,414.466z"/>
		<path d="M370.213,414.466l-0.104,0c-0.012,0-0.023,0-0.036,0c-4.125,0-7.479,3.334-7.499,7.465
			c-0.02,4.142,3.322,7.516,7.465,7.535l0.104,0c0.012,0,0.023,0,0.036,0c4.125,0,7.479-3.334,7.499-7.465
			C377.697,417.859,374.356,414.486,370.213,414.466z"/>
		<path d="M392.641,414.466l-0.104,0c-0.012,0-0.023,0-0.036,0c-4.125,0-7.479,3.334-7.499,7.465
			c-0.02,4.142,3.322,7.516,7.465,7.535l0.104,0c0.012,0,0.023,0,0.036,0c4.125,0,7.479-3.334,7.499-7.465
			C400.125,417.859,396.783,414.486,392.641,414.466z"/>
		<path d="M372.194,140.373c11.431,0,22.482-4.783,30.32-13.123c6.021-6.407,6.021-16.445,0.001-22.854
			c-7.836-8.338-18.888-13.12-30.321-13.12c-11.44,0-22.494,4.784-30.327,13.125c-6.015,6.406-6.015,16.441,0,22.846
			C349.7,135.589,360.754,140.373,372.194,140.373z M352.803,114.67c5.082-5.412,11.969-8.393,19.392-8.393
			c7.418,0,14.305,2.98,19.39,8.392c0.618,0.658,0.618,1.651,0,2.309c-5.088,5.414-11.975,8.395-19.39,8.395
			c-7.423,0-14.31-2.981-19.393-8.394C352.184,116.321,352.184,115.328,352.803,114.67z"/>
		<path d="M323.142,168.383c2.612,11.141,9.794,20.81,19.701,26.53c6.366,3.676,13.582,5.561,20.835,5.56
			c4.029,0,8.071-0.582,11.983-1.762c8.418-2.539,13.438-11.232,11.426-19.792c-2.617-11.142-9.797-20.81-19.696-26.525v0
			c-9.907-5.72-21.874-7.103-32.825-3.797C326.152,151.137,321.135,159.828,323.142,168.383z M338.901,162.958
			c2.56-0.773,5.163-1.156,7.749-1.156c4.594,0,9.128,1.208,13.241,3.583c0,0,0,0,0,0c6.423,3.707,10.896,9.732,12.595,16.964
			c0.206,0.879-0.29,1.739-1.154,2c-7.112,2.145-14.563,1.282-20.988-2.427c-6.429-3.711-10.902-9.736-12.598-16.965
			C337.539,164.079,338.035,163.219,338.901,162.958z"/>
		<path d="M139.806,91.277c-11.434,0-22.485,4.782-30.321,13.12c-6.021,6.408-6.02,16.446,0.002,22.853
			c7.837,8.34,18.889,13.123,30.319,13.123c11.44,0,22.494-4.784,30.326-13.125c6.016-6.405,6.016-16.44,0.001-22.846
			C162.3,96.061,151.246,91.277,139.806,91.277z M159.197,116.98c-5.082,5.412-11.969,8.393-19.392,8.393
			c-7.415,0-14.302-2.981-19.389-8.395c-0.619-0.658-0.619-1.651-0.001-2.309c5.085-5.412,11.972-8.392,19.39-8.392
			c7.423,0,14.31,2.98,19.392,8.393C159.817,115.328,159.817,116.321,159.197,116.98z"/>
		<path d="M177.436,148.598c-10.955-3.307-22.918-1.922-32.826,3.797c-9.899,5.715-17.079,15.383-19.696,26.525
			c-2.012,8.56,3.008,17.253,11.426,19.792c3.912,1.18,7.953,1.762,11.983,1.762c7.253,0,14.47-1.885,20.835-5.56
			c9.907-5.72,17.089-15.39,19.701-26.53C190.865,159.828,185.848,151.137,177.436,148.598z M174.255,164.958
			c-1.695,7.229-6.169,13.253-12.598,16.965c-6.426,3.709-13.878,4.572-20.988,2.427c-0.864-0.261-1.36-1.121-1.154-2
			c1.699-7.232,6.172-13.257,12.595-16.964c0,0,0,0,0,0c4.113-2.375,8.646-3.583,13.241-3.583c2.585,0,5.189,0.383,7.75,1.156
			C173.965,163.219,174.461,164.079,174.255,164.958z"/>
		<path d="M297.671,230.175c4.143,0,7.5-3.358,7.5-7.5s-3.357-7.5-7.5-7.5h-83.342c-4.143,0-7.5,3.358-7.5,7.5s3.357,7.5,7.5,7.5
			H297.671z"/>
		<path d="M174.303,248.55c0,4.142,3.357,7.5,7.5,7.5h148.395c4.143,0,7.5-3.358,7.5-7.5s-3.357-7.5-7.5-7.5H181.803
			C177.66,241.05,174.303,244.408,174.303,248.55z"/>
	</g>
</g>
<g>
</g>
<g>
</g>
<g>
</g>
<g>
</g>
<g>
</g>
<g>
</g>
<g>
</g>
<g>
</g>
<g>
</g>
<g>
</g>
<g>
</g>
<g>
</g>
<g>
</g>
<g>
</g>
<g>
</g>
</svg>
