<?xml version="1.0" encoding="iso-8859-1"?>
<!-- Generator: Adobe Illustrator 23.0.3, SVG Export Plug-In . SVG Version: 6.00 Build 0)  -->
<svg version="1.1" id="Capa_1" xmlns="http://www.w3.org/2000/svg" xmlns:xlink="http://www.w3.org/1999/xlink" x="0px" y="0px"
	 viewBox="0 0 511.998 511.998" style="enable-background:new 0 0 511.998 511.998;" xml:space="preserve">
<g>
	<g>
		<ellipse style="fill:#6E4189;" cx="255.999" cy="420.363" rx="131.803" ry="40.122"/>
		<g>
			<g>
				<g>
					<g>
						<g>
							<path style="fill:#E2267F;" d="M230.366,296c-4.779-4.877-10.103-9.093-15.176-12.587
								c-7.213-4.968-17.195,0.162-17.041,8.919c0.224,12.718-4.291,28.018-24.298,36.073c-17.65,7.107-29.33,14.355-36.784,20.089
								c-5.861,4.508-14.412,1.718-16.503-5.374c-2.319-7.867-12.201-10.398-18.01-4.609c-15.155,15.104-36.466,46.589-26.492,98.73
								c0,0,42.423-37.069,154.303-42.483V296z"/>
							<path style="fill:#C11F6C;" d="M230.369,295.998v98.76c-19.07,0.92-36.12,2.76-51.29,5.18
								c17.66-26.22,18.93-68.09,17.52-95.1c1.22-4.22,1.62-8.49,1.55-12.51c-0.15-8.75,9.83-13.88,17.04-8.92
								C220.259,286.908,225.589,291.118,230.369,295.998z"/>
						</g>
						<g>
							<path style="fill:#E2267F;" d="M281.632,296c4.779-4.877,10.103-9.093,15.176-12.587c7.213-4.968,17.195,0.162,17.041,8.919
								c-0.224,12.718,4.291,28.018,24.298,36.073c17.65,7.107,29.33,14.355,36.784,20.089c5.861,4.508,14.412,1.718,16.503-5.374
								c2.319-7.867,12.201-10.398,18.01-4.609c15.155,15.104,36.466,46.589,26.492,98.73c0,0-42.423-37.069-154.303-42.483V296z"/>
							<path style="fill:#C11F6C;" d="M435.939,437.238c0,0-6.23-5.44-20.19-12.45c0.35-37.54-16.47-61.36-29.05-73.89
								c-0.4-0.4-0.82-0.76-1.25-1.07c2.76-1.16,5.03-3.49,5.98-6.71c2.32-7.87,12.21-10.4,18.01-4.61
								C424.599,353.618,445.909,385.098,435.939,437.238z"/>
						</g>
					</g>
					<g>
						<path style="fill:#B9ACAC;" d="M242.619,107.5V25.815h26.761V107.5c1.632,60.797,30.933,77.925,30.933,77.925h-88.626
							C211.686,185.425,240.986,168.297,242.619,107.5z"/>
						<path style="fill:#9E9797;" d="M288.029,173.048l-22.47-11.24c-7.39-3.69-14.75-7.41-22.12-11.13
							c-2.3-1.17-4.61-2.33-6.91-3.49c3.27-10.48,5.65-23.55,6.09-39.69v-81.68h26.76v81.68
							C270.289,141.378,279.789,161.698,288.029,173.048z"/>
						<path style="fill:#FAF7F7;" d="M241.004,127.048c0.855-5.948,1.425-12.449,1.615-19.547V25.815h26.761V107.5
							c0.39,14.512,2.358,26.528,5.126,36.423C263.324,138.327,252.171,132.672,241.004,127.048z"/>
						<g>
							<g>
								<g>
									<path style="fill:#31A7FB;" d="M285.215,200.853l8.634,262.173c0.097,2.296-0.889,4.505-2.665,5.965l-30.538,25.104
										c-2.701,2.22-6.595,2.22-9.296,0l-30.538-25.104c-1.775-1.46-2.762-3.668-2.665-5.965l8.634-262.173H285.215z"/>
									<polygon style="fill:#1C96F9;" points="286.112,228.104 285.215,200.853 226.78,200.853 225.883,228.104 									"/>
									<path style="fill:#1C96F9;" d="M293.845,463.025l-8.627-262.171h-23.09l8.408,255.507c0.097,2.293-0.885,4.504-2.659,5.963
										l-27.589,22.678l11.062,9.09c2.699,2.222,6.594,2.222,9.298,0.005l30.538-25.108
										C292.96,467.529,293.946,465.323,293.845,463.025z"/>
								</g>
								<g>
									<rect x="182.278" y="181.278" style="fill:#FDEF63;" width="147.439" height="25.993"/>
									<g>
										<g>
											<circle style="fill:#64E0C4;" cx="174.063" cy="194.274" r="22.13"/>
											<g>
												<path style="fill:#27D1B3;" d="M196.191,194.277c0-12.224-9.903-22.135-22.127-22.135c-2.994,0-5.848,0.593-8.447,1.676
													c8.03,3.316,13.673,11.228,13.673,20.458c0,9.223-5.643,17.135-13.673,20.451c2.599,1.083,5.453,1.676,8.447,1.676
													C186.288,216.404,196.191,206.493,196.191,194.277z"/>
											</g>
											<circle style="fill:#64E0C4;" cx="337.932" cy="194.274" r="22.13"/>
											<path style="fill:#27D1B3;" d="M360.065,194.277c0-12.224-9.911-22.135-22.135-22.135c-2.994,0-5.848,0.593-8.447,1.676
												c8.03,3.316,13.68,11.228,13.68,20.458c0,9.223-5.651,17.135-13.68,20.451c2.599,1.083,5.453,1.676,8.447,1.676
												C350.155,216.404,360.065,206.493,360.065,194.277z"/>
										</g>
									</g>
								</g>
							</g>
						</g>
						<g>
							<g>
								<circle style="fill:#FDE734;" cx="255.997" cy="29.63" r="22.13"/>
								<path style="fill:#E2C92C;" d="M278.131,29.633c0-12.224-9.911-22.135-22.135-22.135c-2.994,0-5.848,0.593-8.447,1.676
									c8.03,3.316,13.68,11.228,13.68,20.458c0,9.223-5.651,17.135-13.68,20.451c2.599,1.083,5.453,1.676,8.447,1.676
									C268.22,51.76,278.131,41.849,278.131,29.633z"/>
							</g>
						</g>
					</g>
					<g>
						<path style="fill:#FB5FA7;" d="M450.634,374.541c-5.836,10.503-13.183,21.732-22.006,31.505
							c-11.677,12.935-32.975,8.501-38.589-7.996l0,0c-2.282-6.704-11.086-8.172-15.435-2.583
							c-5.663,7.277-14.407,15.179-27.371,19.478c-21.412,7.102-51.128,12.954-77.403,29.782c-8.411,5.387-19.25,5.387-27.661,0
							c-26.275-16.828-55.992-22.68-77.403-29.782c-12.964-4.3-21.708-12.202-27.371-19.478c-4.349-5.589-13.153-4.121-15.435,2.583
							l0,0c-5.614,16.497-26.912,20.931-38.589,7.996c-8.824-9.775-16.173-21.007-22.009-31.511
							c-4.441-7.994-16.633-4.784-16.633,4.361v31.62c0,18.61,9.258,36.071,24.82,46.278
							c42.408,27.815,109.876,46.271,186.452,47.704c76.576-1.434,144.044-19.889,186.452-47.704
							c15.561-10.207,24.82-27.668,24.82-46.278v-31.62C467.27,369.746,455.078,366.543,450.634,374.541z"/>
						<path style="fill:#FB4297;" d="M467.269,378.898v31.62c0,18.61-9.26,36.07-24.82,46.28c-8.04,5.27-16.97,10.2-26.69,14.74
							c24.247-23.442,21.09-51.76,21.39-75.94c5.15-6.92,9.65-14.14,13.49-21.06C455.079,366.548,467.269,369.748,467.269,378.898z"
							/>
					</g>
				</g>
				<g>
					<g>
						<path style="fill:#FB5FA7;" d="M415.034,302.378c-6.789-0.306-9.068-9.251-3.324-12.884
							c9.805-6.203,23.066-17.866,33.53-39.059c10.779-21.83,51.614,0.828,12.199,33.509
							C439.07,299.174,424.914,302.823,415.034,302.378z"/>
						<path style="fill:#FC7CB6;" d="M407.226,244.073c-5.485,3.974-12.812-1.589-10.587-7.986
							c3.799-10.922,6.904-28.247,1.916-51.268c-5.139-23.714,40.769-31.38,30.306,18.565
							C423.984,226.66,415.208,238.29,407.226,244.073z"/>
					</g>
					<g>
						<path style="fill:#FB5FA7;" d="M96.964,302.378c6.789-0.306,9.067-9.251,3.324-12.884
							c-9.805-6.203-23.066-17.866-33.53-39.059c-10.779-21.83-51.614,0.828-12.198,33.509
							C72.928,299.174,87.084,302.823,96.964,302.378z"/>
						<path style="fill:#FC7CB6;" d="M104.773,244.073c5.485,3.974,12.812-1.589,10.587-7.986
							c-3.799-10.922-6.904-28.247-1.916-51.268c5.139-23.714-40.769-31.38-30.306,18.565
							C88.014,226.66,96.79,238.29,104.773,244.073z"/>
					</g>
				</g>
			</g>
		</g>
	</g>
	<g>
		<path d="M462.475,363.021c-7.329-1.903-14.723,1.266-18.397,7.877c-1.057,1.903-2.132,3.745-3.215,5.56
			c-6.285-20.173-17.188-34.354-26.125-43.261c-4.618-4.604-11.147-6.386-17.463-4.771c-6.318,1.616-11.192,6.316-13.036,12.573
			c-0.393,1.334-1.402,1.843-1.969,2.026c-0.564,0.183-1.673,0.364-2.767-0.479c-10.096-7.765-23.067-14.864-38.555-21.1
			c-13.438-5.41-19.849-14.892-19.601-28.984c0.12-6.805-3.551-13.041-9.579-16.277c-5.229-2.806-11.347-2.917-16.583-0.451
			l-2.007-60.964h23.387c5.396,5.623,12.977,9.134,21.366,9.134c16.339,0,29.631-13.292,29.631-29.63
			c0-16.339-13.292-29.631-29.631-29.631c-8.39,0-15.971,3.511-21.367,9.135h-18.273c-8.105-8.736-20.367-28.17-21.412-66.381V50.63
			c5.4-5.37,8.749-12.801,8.749-21c0-16.338-13.292-29.63-29.631-29.63c-16.338,0-29.63,13.292-29.63,29.63
			c0,8.201,3.35,15.633,8.752,21.003v56.764c-1.048,38.255-13.356,57.692-21.414,66.381h-18.275
			c-5.396-5.624-12.977-9.135-21.367-9.135c-16.339,0-29.631,13.292-29.631,29.631c0,16.338,13.292,29.63,29.631,29.63
			c8.39,0,15.971-3.511,21.366-9.134h23.388l-2.008,60.962c-5.235-2.465-11.353-2.353-16.581,0.453
			c-6.028,3.236-9.699,9.473-9.579,16.277c0.238,13.543-5.664,22.809-18.046,28.325c-3.783,1.686-5.483,6.119-3.798,9.903
			c1.244,2.792,3.983,4.449,6.854,4.449c1.021,0,2.057-0.209,3.049-0.651c17.712-7.892,27.279-22.911,26.938-42.29
			c-0.029-1.636,1.037-2.455,1.675-2.798c0.566-0.301,2.049-0.891,3.612,0.188c1.835,1.264,3.605,2.563,5.291,3.877l-3.126,94.91
			c-22.484,1.821-43.667,5.062-63.049,9.665c-2.422-2.134-4.674-4.526-6.739-7.181c-3.71-4.768-9.709-7.11-15.666-6.105
			c-5.944,1-10.845,5.169-12.787,10.88c-1.776,5.219-6.063,8.998-11.469,10.112c-5.38,1.108-10.782-0.659-14.453-4.727
			c-2.171-2.405-4.31-4.998-6.421-7.732c4.119-24.026,15.964-40.129,25.332-49.467c1.161-1.157,2.479-1.037,3.159-0.863
			c0.684,0.175,1.898,0.703,2.363,2.28c1.683,5.708,6.063,10.214,11.721,12.052c5.652,1.839,11.838,0.771,16.549-2.854
			c2.558-1.968,5.454-3.963,8.608-5.93c3.515-2.192,4.587-6.818,2.396-10.333c-2.192-3.515-6.82-4.586-10.333-2.396
			c-3.569,2.226-6.872,4.504-9.817,6.77c-1.095,0.843-2.204,0.659-2.766,0.478c-0.566-0.184-1.576-0.692-1.969-2.026
			c-1.844-6.257-6.718-10.957-13.036-12.573c-6.313-1.613-12.844,0.17-17.464,4.772c-8.947,8.918-19.843,23.098-26.125,43.261
			c-1.084-1.817-2.161-3.662-3.219-5.566c-3.672-6.608-11.065-9.775-18.39-7.871c-7.356,1.906-12.299,8.285-12.299,15.874v31.62
			c0,21.32,10.545,40.965,28.207,52.55c12.532,8.221,27.197,15.66,43.587,22.111c3.854,1.519,8.208-0.378,9.726-4.231
			c1.518-3.854-0.377-8.209-4.231-9.726c-15.435-6.075-29.18-13.039-40.854-20.697c-13.421-8.803-21.434-23.759-21.434-40.007
			v-31.62c0-0.323,0-1.079,1.063-1.354c1.015-0.266,1.352,0.345,1.515,0.637c7.11,12.798,14.848,23.865,22.998,32.894
			c7.274,8.059,17.974,11.555,28.613,9.367c10.671-2.198,19.135-9.664,22.644-19.972c0.177-0.521,0.539-0.83,1.076-0.92
			c0.55-0.092,0.997,0.086,1.339,0.526c8.166,10.493,18.571,17.892,30.929,21.99c5.153,1.71,10.689,3.323,16.551,5.032
			c18.734,5.46,39.968,11.649,59.17,23.947c10.859,6.957,24.893,6.956,35.75,0c19.202-12.298,40.436-18.487,59.17-23.947
			c5.861-1.709,11.397-3.322,16.551-5.032c12.357-4.099,22.763-11.497,30.929-21.99c0.343-0.44,0.792-0.618,1.339-0.526
			c0.537,0.09,0.899,0.399,1.077,0.92c3.508,10.308,11.972,17.773,22.643,19.972c10.64,2.192,21.34-1.31,28.613-9.367
			c8.149-9.026,15.886-20.092,22.994-32.888c0.163-0.294,0.499-0.907,1.522-0.643c1.059,0.274,1.059,1.031,1.059,1.354v31.62
			c0,16.248-8.013,31.204-21.434,40.007c-42.922,28.152-109.371,45.089-182.338,46.475c-39.041-0.742-77.414-6.127-110.975-15.573
			c-3.989-1.123-8.129,1.2-9.252,5.188c-1.122,3.987,1.2,8.13,5.188,9.252c34.816,9.8,74.547,15.378,114.898,16.134
			c0.047,0.001,0.094,0.001,0.141,0.001s0.094,0,0.141-0.001c75.769-1.419,145.176-19.254,190.424-48.932
			c17.662-11.585,28.207-31.229,28.207-52.55v-31.62C474.771,371.307,469.829,364.928,462.475,363.021z M337.932,179.644
			c8.067,0,14.631,6.563,14.631,14.631s-6.563,14.63-14.631,14.63s-14.63-6.563-14.63-14.63S329.864,179.644,337.932,179.644z
			 M261.879,97.651l-11.76,0.947V87.546l11.76-4.158V97.651z M249.853,113.667l12.233-0.985c0.331,6.283,0.953,12.106,1.804,17.501
			c-2.685-1.351-5.37-2.699-8.053-4.054c-2.246-1.133-4.492-2.266-6.737-3.399C249.419,119.824,249.671,116.801,249.853,113.667z
			 M255.997,15c8.067,0,14.631,6.563,14.631,14.63s-6.563,14.631-14.631,14.631s-14.63-6.563-14.63-14.631S247.93,15,255.997,15z
			 M255.997,59.261c2.013,0,3.98-0.204,5.882-0.588v8.805l-11.76,4.158V58.673C252.02,59.057,253.985,59.261,255.997,59.261z
			 M246.6,138.271c0.825,0.417,1.651,0.833,2.477,1.25c6.385,3.223,12.773,6.441,19.166,9.647
			c3.2,10.333,7.227,18.411,11.216,24.611h-46.922C237.823,165.558,243.193,154.016,246.6,138.271z M174.063,208.904
			c-8.067,0-14.631-6.563-14.631-14.63s6.563-14.631,14.631-14.631s14.63,6.563,14.63,14.631S182.131,208.904,174.063,208.904z
			 M203.174,188.778h105.647c-0.336,1.782-0.519,3.618-0.519,5.496s0.184,3.714,0.519,5.496H203.174
			c0.336-1.782,0.519-3.618,0.519-5.496S203.51,190.561,203.174,188.778z M170.789,409.005c13.246-2.453,27.229-4.307,41.815-5.54
			l-0.606,18.418c-10.152-3.729-20.01-6.613-28.845-9.188C178.82,411.432,174.672,410.222,170.789,409.005z M328.846,412.694
			c-8.836,2.576-18.695,5.459-28.848,9.189l-0.607-18.418c14.587,1.234,28.568,3.089,41.814,5.541
			C337.323,410.223,333.177,411.433,328.846,412.694z M408.607,405.747c-5.405-1.114-9.692-4.894-11.468-10.112
			c-1.943-5.711-6.844-9.88-12.788-10.88c-5.951-1-11.955,1.337-15.666,6.105c-2.067,2.657-4.32,5.05-6.745,7.186
			c-19.385-4.604-40.56-7.849-63.046-9.67l-0.82-24.896c-0.134-4.056-3.464-7.253-7.491-7.253c-0.084,0-0.168,0.001-0.252,0.004
			c-4.14,0.137-7.385,3.604-7.249,7.743l2.107,63.962c-6.551,2.988-13.082,6.425-19.405,10.475c-5.945,3.807-13.625,3.807-19.57,0
			c-6.324-4.05-12.856-7.488-19.407-10.477l7.02-213.165h44.343l3.829,116.28c0.134,4.056,3.464,7.253,7.491,7.253
			c0.084,0,0.168-0.001,0.252-0.004c4.14-0.137,7.385-3.603,7.249-7.743l-1.221-37.087c1.687-1.316,3.457-2.616,5.293-3.881
			c1.563-1.076,3.047-0.488,3.612-0.188c0.638,0.343,1.704,1.162,1.675,2.798c-0.354,20.162,9.943,35.491,28.996,43.162
			c14.22,5.726,26,12.144,35.012,19.075c4.71,3.623,10.897,4.693,16.549,2.854c5.657-1.838,10.038-6.344,11.721-12.052
			c0.465-1.577,1.68-2.105,2.363-2.28c0.681-0.175,1.998-0.295,3.158,0.863c9.357,9.325,21.214,25.428,25.334,49.465
			c-2.111,2.734-4.251,5.328-6.422,7.733C419.389,405.088,413.988,406.851,408.607,405.747z"/>
		<path d="M407.7,283.155c-5.384,3.406-7.9,9.841-6.262,16.012c1.624,6.118,6.952,10.42,13.259,10.703h-0.001
			c0.647,0.029,1.298,0.044,1.951,0.044c14.083,0,29.405-6.787,45.578-20.196c21.366-17.716,20.718-32.398,18.431-39.574
			c-2.785-8.733-10.941-15.073-20.298-15.776c-9.245-0.704-17.618,4.189-21.843,12.748
			C428.695,267.004,416.338,277.691,407.7,283.155z M451.965,253.756c1.857-3.761,4.781-4.453,6.682-4.453
			c0.209,0,0.406,0.009,0.588,0.022c2.763,0.207,6.038,1.949,7.131,5.375c1.91,5.992-3.217,14.767-13.714,23.471
			c-13.009,10.786-25.234,16.541-35.504,16.737C427.307,288.174,441.119,275.722,451.965,253.756z"/>
		<path d="M394.613,250.024c2.565,1.907,5.582,2.862,8.598,2.862c2.946,0,5.893-0.912,8.414-2.739
			c0.001-0.001,0.001-0.001,0.001-0.001c11.813-8.561,20.082-23.776,24.575-45.225c5.675-27.089-3.949-38.146-10.191-42.327
			c-7.599-5.09-17.905-4.973-25.649,0.29c-7.652,5.202-11.153,14.215-9.137,23.522c4.682,21.6,1.677,37.599-1.669,47.216
			C387.466,239.63,389.498,246.221,394.613,250.024z M405.884,183.23c-0.98-4.522,1.402-6.916,2.909-7.94
			c1.28-0.87,2.984-1.463,4.76-1.463c1.384,0,2.811,0.36,4.11,1.23c5.199,3.482,6.641,13.497,3.856,26.788
			c-3.441,16.431-9.381,28.479-17.23,35.016C408.023,225.298,411.044,207.041,405.884,183.23z M402.825,238l4.4,6.073l-4.407-6.069
			C402.82,238.003,402.823,238.002,402.825,238z"/>
		<path d="M49.772,289.718c16.174,13.41,31.494,20.196,45.578,20.196c0.652,0,1.305-0.015,1.95-0.044
			c6.307-0.283,11.635-4.585,13.259-10.703c1.639-6.171-0.878-12.605-6.262-16.011c-8.638-5.465-20.995-16.152-30.815-36.041
			c-4.226-8.559-12.592-13.452-21.843-12.748c-9.356,0.703-17.513,7.043-20.298,15.776
			C29.055,257.319,28.406,272.002,49.772,289.718z M45.633,254.7c1.093-3.426,4.368-5.168,7.131-5.375
			c0.182-0.014,0.379-0.022,0.588-0.022c1.9,0,4.824,0.692,6.682,4.453c10.842,21.959,24.648,34.409,34.817,41.152
			c-10.27-0.197-22.496-5.952-35.504-16.737C48.85,269.467,43.723,260.692,45.633,254.7z"/>
		<path d="M100.372,250.146C100.372,250.146,100.372,250.146,100.372,250.146c2.523,1.828,5.469,2.74,8.415,2.74
			c3.016,0,6.032-0.956,8.598-2.862c5.115-3.804,7.147-10.395,5.059-16.401c-3.346-9.617-6.351-25.616-1.669-47.217
			c2.017-9.307-1.484-18.319-9.137-23.521c-7.742-5.264-18.051-5.378-25.649-0.29c-6.242,4.181-15.866,15.238-10.191,42.327
			C80.29,226.37,88.559,241.586,100.372,250.146z M94.335,175.058c1.301-0.87,2.727-1.23,4.11-1.23c1.774,0,3.48,0.593,4.76,1.463
			c1.507,1.024,3.89,3.418,2.909,7.939c-5.159,23.806-2.142,42.058,1.595,53.632c-7.85-6.536-13.789-18.585-17.23-35.016
			C87.694,188.555,89.136,178.54,94.335,175.058z"/>
		<path d="M44.675,192.925h0.106c4.143,0,7.5-3.357,7.5-7.5s-3.357-7.5-7.5-7.5h-0.106c-4.143,0-7.5,3.357-7.5,7.5
			S40.532,192.925,44.675,192.925z"/>
		<path d="M58.664,151.423h0.106c4.143,0,7.5-3.357,7.5-7.5s-3.357-7.5-7.5-7.5h-0.106c-4.143,0-7.5,3.357-7.5,7.5
			S54.521,151.423,58.664,151.423z"/>
		<path d="M368.214,151.423h0.106c4.143,0,7.5-3.357,7.5-7.5s-3.357-7.5-7.5-7.5h-0.106c-4.143,0-7.5,3.357-7.5,7.5
			S364.071,151.423,368.214,151.423z"/>
		<path d="M368.267,253.538h-0.106c-4.143,0-7.5,3.357-7.5,7.5s3.357,7.5,7.5,7.5h0.106c4.143,0,7.5-3.357,7.5-7.5
			S372.409,253.538,368.267,253.538z"/>
		<path d="M457.011,213.366h0.106c4.143,0,7.5-3.357,7.5-7.5s-3.357-7.5-7.5-7.5h-0.106c-4.143,0-7.5,3.357-7.5,7.5
			S452.868,213.366,457.011,213.366z"/>
		<path d="M466.29,180.07h0.106c4.143,0,7.5-3.357,7.5-7.5s-3.357-7.5-7.5-7.5h-0.106c-4.143,0-7.5,3.357-7.5,7.5
			S462.147,180.07,466.29,180.07z"/>
		<path d="M139.144,273.428h0.106c4.143,0,7.5-3.357,7.5-7.5s-3.357-7.5-7.5-7.5h-0.106c-4.143,0-7.5,3.357-7.5,7.5
			S135.001,273.428,139.144,273.428z"/>
		<path d="M139.196,452.78c4.143,0,7.5-3.357,7.5-7.5s-3.357-7.5-7.5-7.5h-0.106c-4.143,0-7.5,3.357-7.5,7.5s3.357,7.5,7.5,7.5
			H139.196z"/>
		<path d="M157.883,467.984c4.143,0,7.5-3.357,7.5-7.5s-3.357-7.5-7.5-7.5h-0.106c-4.143,0-7.5,3.357-7.5,7.5s3.357,7.5,7.5,7.5
			H157.883z"/>
		<path d="M332.45,354.438h-0.106c-4.143,0-7.5,3.357-7.5,7.5s3.357,7.5,7.5,7.5h0.106c4.143,0,7.5-3.357,7.5-7.5
			S336.593,354.438,332.45,354.438z"/>
		<path d="M368.32,447.713c4.143,0,7.5-3.357,7.5-7.5s-3.357-7.5-7.5-7.5h-0.106c-4.143,0-7.5,3.357-7.5,7.5s3.357,7.5,7.5,7.5
			H368.32z"/>
		<path d="M180.89,381.828c0.023,0,0.047,0,0.069,0c4.11,0,7.461-3.313,7.499-7.432c0.037-4.143-3.29-7.53-7.432-7.568l-0.107-0.001
			c-0.023,0-0.047,0-0.069,0c-4.11,0-7.461,3.313-7.499,7.432c-0.037,4.143,3.29,7.53,7.432,7.568L180.89,381.828z"/>
	</g>
</g>
<g>
</g>
<g>
</g>
<g>
</g>
<g>
</g>
<g>
</g>
<g>
</g>
<g>
</g>
<g>
</g>
<g>
</g>
<g>
</g>
<g>
</g>
<g>
</g>
<g>
</g>
<g>
</g>
<g>
</g>
</svg>
