<?xml version="1.0" encoding="iso-8859-1"?>
<!-- Generator: Adobe Illustrator 23.0.3, SVG Export Plug-In . SVG Version: 6.00 Build 0)  -->
<svg version="1.1" id="Capa_1" xmlns="http://www.w3.org/2000/svg" xmlns:xlink="http://www.w3.org/1999/xlink" x="0px" y="0px"
	 viewBox="0 0 512 512" style="enable-background:new 0 0 512 512;" xml:space="preserve">
<g>
	<g>
		<g>
			<g>
				<path style="fill:#1C96F9;" d="M179.77,138.55c0-42.735,35.165-77.256,78.137-76.206c40.229,0.982,73.089,33.654,74.288,73.876
					c0.851,28.571-14.013,53.73-36.607,67.478c-2.63,1.6-6.066,0.681-7.533-2.026L256,142.505l-32.056,59.167
					c-1.464,2.702-4.896,3.63-7.522,2.032C194.439,190.332,179.77,166.159,179.77,138.55z"/>
				<path style="fill:#1785F8;" d="M295.588,203.696c-2.632,1.602-6.064,0.686-7.533-2.021l-5.797-10.708
					c13.444-14.178,21.482-33.515,20.853-54.749c-1.077-35.917-27.403-65.828-61.671-72.502c5.311-1.039,10.822-1.506,16.467-1.373
					c40.227,0.982,73.093,33.658,74.285,73.875C333.05,164.794,318.186,189.947,295.588,203.696z"/>
				<g>
					<g>
						<path style="fill:#D9ECFD;" d="M250.954,56.247l-40.996,58.806c-1.474,2.114-1.474,4.922,0,7.036l40.996,58.806
							c2.448,3.511,7.644,3.511,10.092,0l40.996-58.806c1.474-2.114,1.474-4.922,0-7.036l-40.996-58.806
							C258.598,52.736,253.402,52.736,250.954,56.247z"/>
						<path style="fill:#B5DBFD;" d="M302.043,122.088l-40.999,58.81c-2.441,3.509-7.647,3.509-10.088,0l-7.285-10.45l33.705-48.36
							c1.478-2.117,1.478-4.92,0-7.037l-33.705-48.351l7.285-10.45c2.441-3.518,7.647-3.518,10.088,0l40.999,58.801
							C303.512,117.168,303.512,119.971,302.043,122.088z"/>
					</g>
				</g>
			</g>
			<g>
				<g>
					<circle style="fill:#FB5FA7;" cx="255.997" cy="448.254" r="30.091"/>
					<path style="fill:#FB4297;" d="M286.087,448.254c0,16.613-13.476,30.089-30.089,30.089c-4.248,0-8.301-0.879-11.963-2.478
						c10.656-4.626,18.115-15.246,18.115-27.611c0-12.366-7.458-22.985-18.115-27.612c3.662-1.599,7.715-2.478,11.963-2.478
						C272.611,418.165,286.087,431.641,286.087,448.254z"/>
				</g>
			</g>
			<g>
				<g>
					<circle style="fill:#FB5FA7;" cx="474.409" cy="386.435" r="30.091"/>
					<path style="fill:#FB4297;" d="M504.499,386.435c0,16.613-13.476,30.089-30.089,30.089c-4.248,0-8.301-0.879-11.963-2.478
						c10.656-4.626,18.115-15.246,18.115-27.611c0-12.365-7.458-22.985-18.115-27.612c3.662-1.599,7.715-2.478,11.963-2.478
						C491.023,356.346,504.499,369.822,504.499,386.435z"/>
				</g>
			</g>
			<g>
				<g>
					<circle style="fill:#FB5FA7;" cx="369.807" cy="429.25" r="30.091"/>
					<path style="fill:#FB4297;" d="M399.783,426.627c1.448,16.55-10.802,31.149-27.352,32.597
						c-4.232,0.37-8.346-0.152-12.133-1.426c10.213-5.537,16.717-16.767,15.639-29.085c-1.078-12.318-9.433-22.248-20.452-25.928
						c3.509-1.912,7.469-3.141,11.701-3.511C383.735,397.827,398.335,410.077,399.783,426.627z"/>
				</g>
			</g>
			<g>
				<g>
					<circle style="fill:#FB5FA7;" cx="37.591" cy="386.435" r="30.091"/>
					<path style="fill:#FB4297;" d="M67.681,386.436c0-16.613-13.476-30.089-30.089-30.089c-4.248,0-8.301,0.879-11.963,2.478
						c10.656,4.626,18.115,15.246,18.115,27.611c0,12.365-7.458,22.985-18.115,27.612c3.662,1.599,7.715,2.478,11.963,2.478
						C54.204,416.525,67.681,403.049,67.681,386.436z"/>
				</g>
			</g>
			<g>
				<g>
					<circle style="fill:#FB5FA7;" cx="142.193" cy="429.25" r="30.091"/>
					<path style="fill:#FB4297;" d="M172.283,429.25c0-16.613-13.476-30.089-30.089-30.089c-4.248,0-8.301,0.879-11.963,2.478
						c10.656,4.626,18.115,15.246,18.115,27.611c0,12.365-7.458,22.985-18.115,27.612c3.662,1.599,7.715,2.478,11.963,2.478
						C158.807,459.34,172.283,445.864,172.283,429.25z"/>
				</g>
			</g>
		</g>
		<g>
			<g>
				<g>
					<g>
						<path style="fill:#B5DBFD;" d="M123.306,93.755c9.805,0,18.641,4.138,24.859,10.759c3.325,3.541,3.325,9.037,0,12.578
							c-6.218,6.622-15.055,10.759-24.859,10.759c-9.796,0-18.635-4.136-24.856-10.756c-3.328-3.541-3.327-9.04,0.001-12.581
							C104.673,97.893,113.508,93.755,123.306,93.755z"/>
					</g>
				</g>
				<g>
					<g>
						<path style="fill:#B5DBFD;" d="M114.781,153.868c8.491-4.902,18.212-5.737,26.909-3.112c4.65,1.404,7.398,6.163,6.289,10.893
							c-2.075,8.844-7.658,16.845-16.149,21.747c-8.484,4.898-18.207,5.735-26.904,3.113c-4.652-1.403-7.401-6.165-6.29-10.896
							C100.714,166.768,106.296,158.767,114.781,153.868z"/>
					</g>
				</g>
				<g>
					<g>
						<path style="fill:#B5DBFD;" d="M131.859,67.738c8.491,4.902,18.212,5.737,26.909,3.112c4.65-1.404,7.398-6.163,6.289-10.893
							c-2.075-8.844-7.658-16.845-16.149-21.747c-8.484-4.898-18.207-5.735-26.904-3.113c-4.652,1.403-7.401,6.165-6.29,10.896
							C117.792,54.838,123.374,62.839,131.859,67.738z"/>
					</g>
				</g>
			</g>
			<g>
				<g>
					<g>
						<path style="fill:#B5DBFD;" d="M388.694,93.755c-9.805,0-18.641,4.138-24.859,10.759c-3.325,3.541-3.325,9.037,0,12.578
							c6.218,6.622,15.055,10.759,24.859,10.759c9.796,0,18.635-4.136,24.856-10.756c3.328-3.541,3.327-9.04-0.001-12.581
							C407.327,97.893,398.492,93.755,388.694,93.755z"/>
					</g>
				</g>
				<g>
					<g>
						<path style="fill:#B5DBFD;" d="M397.219,153.868c-8.491-4.902-18.212-5.737-26.909-3.112
							c-4.65,1.404-7.398,6.163-6.289,10.893c2.075,8.844,7.658,16.845,16.149,21.747c8.484,4.898,18.207,5.735,26.904,3.113
							c4.652-1.403,7.401-6.165,6.29-10.896C411.286,166.768,405.704,158.767,397.219,153.868z"/>
					</g>
				</g>
				<g>
					<g>
						<path style="fill:#B5DBFD;" d="M380.141,67.738c-8.491,4.902-18.212,5.737-26.909,3.112c-4.65-1.404-7.398-6.163-6.289-10.893
							c2.075-8.844,7.658-16.845,16.149-21.747c8.484-4.898,18.207-5.735,26.904-3.113c4.652,1.403,7.401,6.165,6.29,10.896
							C394.208,54.838,388.626,62.839,380.141,67.738z"/>
					</g>
				</g>
			</g>
		</g>
	</g>
	<g>
		<path d="M338.481,153.016c0.711-4.081-2.021-7.965-6.102-8.676c-4.083-0.713-7.965,2.021-8.676,6.102
			c-3.263,18.729-14.197,35.252-30.134,45.664l-14.862-27.431l29.487-42.296c3.255-4.669,3.255-10.944,0-15.614l-24.451-35.073
			c18.683,8.282,33.099,24.668,38.61,45.008c0.905,3.341,3.931,5.541,7.234,5.541c0.649,0,1.309-0.085,1.966-0.263
			c3.998-1.083,6.361-5.203,5.277-9.2c-8.551-31.556-34.711-55.296-66.806-60.763l-2.828-4.056
			c-2.551-3.66-6.737-5.844-11.198-5.844s-8.647,2.185-11.198,5.844l-2.826,4.054c-18.976,3.207-36.35,12.914-49.087,27.513
			c-13.296,15.238-20.618,34.78-20.618,55.025c0,29.478,15.048,56.23,40.253,71.562c2.028,1.234,4.361,1.872,6.708,1.872
			c1.122,0,2.247-0.146,3.344-0.442c3.389-0.916,6.292-3.21,7.964-6.296l12.353-22.801l1.91,2.739
			c2.551,3.66,6.738,5.845,11.199,5.845s8.647-2.185,11.198-5.845l1.91-2.74l12.353,22.801c1.671,3.084,4.572,5.378,7.959,6.293
			c1.098,0.296,2.224,0.442,3.347,0.442c2.35,0,4.687-0.639,6.719-1.875C320.137,197.54,334.35,176.731,338.481,153.016z
			 M240.617,152.953c-2.37-3.398-7.045-4.233-10.441-1.863c-3.398,2.369-4.232,7.044-1.863,10.441l4.98,7.143l-14.862,27.432
			c-19.555-12.753-31.16-34.104-31.16-57.556c0-27.592,16.724-52.088,41.001-62.88l-24.466,35.094
			c-3.255,4.669-3.255,10.944,0,15.614l5.688,8.159c2.369,3.399,7.045,4.232,10.442,1.863c3.397-2.369,4.232-7.044,1.863-10.442
			l-5.15-7.388L256,62.123l39.352,56.448L256,175.018L240.617,152.953z"/>
		<path d="M269.879,111.071H263.5V98.249c0-4.142-3.358-7.5-7.5-7.5s-7.5,3.358-7.5,7.5v12.821h-6.379c-4.142,0-7.5,3.358-7.5,7.5
			s3.358,7.5,7.5,7.5h6.379v12.821c0,4.142,3.358,7.5,7.5,7.5s7.5-3.358,7.5-7.5v-12.821h6.379c4.142,0,7.5-3.358,7.5-7.5
			S274.021,111.071,269.879,111.071z"/>
		<path d="M255.998,410.664c-20.728,0-37.591,16.863-37.591,37.591s16.863,37.591,37.591,37.591s37.591-16.863,37.591-37.591
			S276.725,410.664,255.998,410.664z M255.998,470.845c-12.457,0-22.591-10.134-22.591-22.591s10.134-22.591,22.591-22.591
			s22.591,10.134,22.591,22.591S268.454,470.845,255.998,470.845z"/>
		<path d="M255.998,396.272c4.142,0,7.5-3.358,7.5-7.5v-111.9l1.547,1.547c1.464,1.465,3.384,2.197,5.303,2.197
			s3.839-0.732,5.303-2.197c2.929-2.929,2.929-7.678,0-10.606l-14.35-14.35c-2.929-2.929-7.678-2.929-10.606,0l-14.35,14.35
			c-2.929,2.929-2.929,7.678,0,10.606c2.929,2.929,7.678,2.929,10.606,0l1.546-1.546v111.899
			C248.498,392.915,251.855,396.272,255.998,396.272z"/>
		<path d="M474.409,348.845c-20.728,0-37.591,16.863-37.591,37.591s16.863,37.591,37.591,37.591S512,407.163,512,386.436
			S495.137,348.845,474.409,348.845z M474.409,409.026c-12.457,0-22.591-10.134-22.591-22.591s10.134-22.591,22.591-22.591
			S497,373.979,497,386.436S486.866,409.026,474.409,409.026z"/>
		<path d="M397.326,234.831c3.999,1.07,8.114-1.302,9.186-5.303c1.072-4.001-1.302-8.114-5.303-9.186l-19.602-5.252
			c-1.921-0.514-3.968-0.245-5.691,0.75c-1.723,0.995-2.979,2.633-3.495,4.554l-5.252,19.603c-1.072,4.001,1.303,8.113,5.304,9.186
			c0.65,0.174,1.303,0.257,1.946,0.257c3.311,0,6.342-2.21,7.24-5.561l0.566-2.112l55.95,96.907c1.389,2.406,3.91,3.751,6.502,3.751
			c1.272,0,2.562-0.324,3.743-1.006c3.587-2.071,4.816-6.658,2.745-10.245l-55.95-96.907L397.326,234.831z"/>
		<path d="M393.97,400.454c-7.692-6.454-17.438-9.526-27.439-8.652c-20.648,1.807-35.978,20.076-34.171,40.725
			c0.875,10.002,5.593,19.065,13.285,25.52c6.833,5.733,15.284,8.798,24.098,8.798c1.108,0,2.223-0.048,3.341-0.146
			c10.002-0.875,19.066-5.593,25.52-13.285c6.454-7.691,9.526-17.437,8.651-27.439S401.662,406.908,393.97,400.454z
			 M387.113,443.771c-3.879,4.623-9.325,7.458-15.337,7.983c-6.006,0.526-11.867-1.32-16.49-5.199
			c-4.623-3.878-7.458-9.325-7.983-15.336c-1.086-12.409,8.126-23.388,20.536-24.474c0.671-0.059,1.341-0.088,2.007-0.088
			c5.297,0,10.376,1.842,14.482,5.287c4.623,3.878,7.458,9.325,7.983,15.337C392.838,433.292,390.991,439.148,387.113,443.771z"/>
		<path d="M347.167,373.735c0.898,3.351,3.928,5.561,7.24,5.561c0.643,0,1.296-0.083,1.946-0.257
			c4.001-1.072,6.375-5.185,5.304-9.186l-28.962-108.087l1.894,1.094c3.586,2.071,8.174,0.841,10.245-2.745
			c2.071-3.587,0.842-8.174-2.745-10.245l-17.575-10.146c-3.588-2.072-8.174-0.843-10.245,2.745l-10.147,17.575
			c-2.071,3.587-0.842,8.174,2.745,10.245c1.181,0.682,2.471,1.006,3.743,1.006c2.592,0,5.113-1.345,6.502-3.751l1.094-1.894
			L347.167,373.735z"/>
		<path d="M37.591,348.845C16.863,348.845,0,365.708,0,386.436s16.863,37.591,37.591,37.591s37.591-16.863,37.591-37.591
			S58.318,348.845,37.591,348.845z M37.591,409.026C25.134,409.026,15,398.892,15,386.436s10.134-22.591,22.591-22.591
			s22.591,10.134,22.591,22.591S50.047,409.026,37.591,409.026z"/>
		<path d="M63.582,341.417c1.181,0.682,2.471,1.006,3.743,1.006c2.592,0,5.113-1.346,6.502-3.751l55.95-96.907l0.566,2.112
			c0.898,3.351,3.928,5.561,7.24,5.561c0.643,0,1.296-0.083,1.946-0.257c4.001-1.072,6.375-5.185,5.304-9.186l-5.252-19.603
			c-0.515-1.921-1.772-3.56-3.495-4.554c-1.724-0.995-3.771-1.265-5.691-0.75l-19.602,5.252c-4.001,1.072-6.375,5.185-5.303,9.186
			c1.072,4,5.183,6.374,9.186,5.303l2.112-0.566l-55.95,96.907C58.765,334.76,59.994,339.347,63.582,341.417z"/>
		<path d="M142.193,391.659c-20.728,0-37.591,16.863-37.591,37.591c0,12.613,6.28,24.319,16.798,31.315
			c3.449,2.293,8.104,1.358,10.398-2.092c2.293-3.449,1.357-8.104-2.092-10.398c-6.327-4.208-10.104-11.245-10.104-18.825
			c0-12.457,10.134-22.591,22.591-22.591s22.591,10.134,22.591,22.591c0,7.681-3.858,14.77-10.322,18.963
			c-3.475,2.255-4.464,6.899-2.21,10.374c1.437,2.214,3.843,3.419,6.299,3.419c1.399,0,2.814-0.391,4.075-1.209
			c10.744-6.971,17.158-18.764,17.158-31.547C179.784,408.522,162.92,391.659,142.193,391.659z"/>
		<path d="M197.731,242.469c-2.071-3.588-6.657-4.816-10.245-2.745l-17.575,10.146c-3.587,2.071-4.816,6.658-2.745,10.245
			c2.072,3.588,6.659,4.818,10.245,2.745l1.894-1.094l-28.962,108.087c-1.072,4.001,1.303,8.113,5.304,9.186
			c0.65,0.174,1.303,0.257,1.946,0.257c3.311,0,6.342-2.21,7.24-5.561l28.962-108.086l1.094,1.894
			c1.389,2.406,3.91,3.751,6.502,3.751c1.272,0,2.562-0.324,3.743-1.006c3.587-2.071,4.816-6.658,2.745-10.245L197.731,242.469z"/>
		<path d="M123.306,135.351c11.439,0,22.493-4.784,30.327-13.125c6.016-6.405,6.016-16.44,0-22.847
			c-7.834-8.34-18.887-13.124-30.327-13.124c-11.432,0-22.483,4.783-30.32,13.123c-6.021,6.407-6.022,16.446-0.001,22.853
			C100.819,130.569,111.871,135.351,123.306,135.351z M103.917,109.65c5.087-5.413,11.973-8.395,19.389-8.395
			c7.422,0,14.31,2.981,19.393,8.393c0.618,0.658,0.618,1.651,0,2.309c-5.083,5.413-11.971,8.394-19.393,8.394
			c-7.419,0-14.305-2.98-19.39-8.392C103.297,111.301,103.298,110.309,103.917,109.65z"/>
		<path d="M143.857,143.576c-10.954-3.306-22.918-1.922-32.826,3.797c-9.899,5.715-17.079,15.383-19.696,26.524
			c-2.011,8.56,3.008,17.254,11.425,19.792c3.913,1.18,7.954,1.762,11.984,1.762c7.253,0,14.47-1.885,20.835-5.56
			c9.907-5.72,17.088-15.389,19.701-26.53C157.288,154.807,152.27,146.116,143.857,143.576z M140.677,159.936
			c-1.696,7.229-6.17,13.254-12.598,16.965c-6.424,3.709-13.877,4.572-20.989,2.427c-0.864-0.261-1.36-1.121-1.153-2
			c1.699-7.232,6.172-13.257,12.594-16.965c4.113-2.375,8.647-3.583,13.241-3.583c2.585,0,5.19,0.383,7.75,1.156
			C140.387,158.197,140.883,159.057,140.677,159.936z"/>
		<path d="M128.109,74.233c6.368,3.676,13.583,5.561,20.836,5.561c4.032,0,8.076-0.583,11.99-1.764
			c8.412-2.54,13.43-11.23,11.423-19.785c-2.613-11.141-9.793-20.81-19.701-26.53c-9.903-5.717-21.865-7.102-32.818-3.798
			c-8.418,2.538-13.437,11.231-11.426,19.791C111.03,58.849,118.209,68.517,128.109,74.233z M124.169,42.278
			c7.11-2.145,14.563-1.281,20.988,2.427c6.428,3.711,10.902,9.736,12.598,16.965c0.206,0.879-0.29,1.738-1.154,2
			c-7.108,2.146-14.563,1.284-20.991-2.427c-6.422-3.708-10.895-9.733-12.594-16.965C122.809,43.398,123.305,42.539,124.169,42.278z
			"/>
		<path d="M358.367,99.38c-6.015,6.406-6.015,16.441,0,22.846c7.833,8.341,18.887,13.125,30.327,13.125
			c11.435,0,22.486-4.782,30.321-13.12c6.021-6.407,6.02-16.446-0.001-22.853c-7.837-8.34-18.888-13.123-30.32-13.123
			C377.255,86.255,366.202,91.039,358.367,99.38z M408.083,109.65c0.619,0.658,0.619,1.651,0,2.309
			c-5.085,5.411-11.971,8.392-19.39,8.392c-7.422,0-14.31-2.981-19.393-8.394c-0.618-0.658-0.618-1.651,0-2.309
			c5.083-5.413,11.971-8.394,19.393-8.394C396.111,101.255,402.997,104.237,408.083,109.65z"/>
		<path d="M376.42,189.892c6.366,3.676,13.582,5.56,20.835,5.56c4.029,0,8.072-0.582,11.983-1.762
			c8.418-2.538,13.437-11.232,11.426-19.792c-2.618-11.142-9.797-20.81-19.696-26.524c-9.907-5.72-21.872-7.103-32.826-3.797
			c-8.413,2.54-13.43,11.23-11.423,19.786C359.333,174.502,366.514,184.172,376.42,189.892z M372.478,157.936
			c2.56-0.773,5.164-1.156,7.75-1.156c4.594,0,9.128,1.208,13.241,3.583c6.422,3.708,10.895,9.732,12.594,16.965
			c0.207,0.879-0.289,1.739-1.154,2c-7.109,2.144-14.563,1.282-20.988-2.427c-6.428-3.711-10.902-9.736-12.598-16.965
			C371.117,159.057,371.613,158.197,372.478,157.936z"/>
		<path d="M351.064,78.029c3.915,1.182,7.957,1.765,11.99,1.765c7.252,0,14.47-1.885,20.836-5.561
			c9.9-5.716,17.08-15.384,19.696-26.525c2.011-8.56-3.008-17.253-11.425-19.792c-10.954-3.302-22.917-1.919-32.819,3.798
			c-9.908,5.72-17.088,15.39-19.701,26.53C337.635,66.8,342.652,75.49,351.064,78.029z M354.245,61.67
			c1.695-7.229,6.169-13.253,12.598-16.965c4.112-2.374,8.644-3.582,13.239-3.582c2.585,0,5.19,0.382,7.75,1.154
			c0.864,0.261,1.36,1.12,1.153,2c-1.699,7.231-6.171,13.256-12.594,16.965c-6.428,3.71-13.884,4.573-20.991,2.427
			C354.535,63.409,354.039,62.549,354.245,61.67z"/>
	</g>
</g>
<g>
</g>
<g>
</g>
<g>
</g>
<g>
</g>
<g>
</g>
<g>
</g>
<g>
</g>
<g>
</g>
<g>
</g>
<g>
</g>
<g>
</g>
<g>
</g>
<g>
</g>
<g>
</g>
<g>
</g>
</svg>
