<?xml version="1.0" encoding="iso-8859-1"?>
<!-- Generator: Adobe Illustrator 23.0.3, SVG Export Plug-In . SVG Version: 6.00 Build 0)  -->
<svg version="1.1" id="Capa_1" xmlns="http://www.w3.org/2000/svg" xmlns:xlink="http://www.w3.org/1999/xlink" x="0px" y="0px"
	 viewBox="0 0 512 512" style="enable-background:new 0 0 512 512;" xml:space="preserve">
<g>
	<g>
		<path style="fill:#EFE2DD;" d="M484.5,504.5h-457c-11.046,0-20-8.954-20-20v-457c0-11.046,8.954-20,20-20h457
			c11.046,0,20,8.954,20,20v457C504.5,495.546,495.546,504.5,484.5,504.5z"/>
		<path style="fill:#E0D3CE;" d="M504.5,27.5v457c0,11.05-8.95,20-20,20h-36.06c11.04,0,20-8.95,20-20v-457c0-11.05-8.96-20-20-20
			h36.06C495.55,7.5,504.5,16.45,504.5,27.5z"/>
		<path style="fill:#17998C;" d="M458.437,43.683H298.858c-2.818,0-5.505,1.189-7.401,3.274L275.14,64.912
			c-2.201,2.422-3.078,5.769-2.347,8.959l7.519,32.81c0.396,1.73,0.325,3.534-0.206,5.227l-11.126,35.465
			c-0.987,3.147-0.359,6.578,1.678,9.172l12.048,15.334c2.051,2.61,5.263,4.032,8.574,3.796l52.658-3.752
			c2.892-0.206,5.731,0.853,7.782,2.904l20.627,20.627c1.875,1.875,4.419,2.929,7.071,2.929h17.699c4.263,0,8.058,2.703,9.451,6.732
			l23.219,67.14c1.393,4.029,5.188,6.732,9.451,6.732h19.198c5.523,0,10-4.477,10-10V53.683
			C468.437,48.16,463.96,43.683,458.437,43.683z"/>
		<path style="fill:#138B80;" d="M468.44,53.68v215.31c0,5.52-4.48,10-10,10h-19.2c-1.7,0-3.32-0.43-4.75-1.21
			c3.11-1.69,5.23-5,5.23-8.79V53.68c0-5.52-4.48-10-10-10h28.72C463.96,43.68,468.44,48.16,468.44,53.68z"/>
		<path style="fill:#27D1B3;" d="M43.563,458.317V243.012c0-5.523,4.477-10,10-10h39.917c2.652,0,5.196,1.054,7.071,2.929
			l26.057,26.057c1.875,1.875,2.929,4.419,2.929,7.071v36.427c0,2.652-1.054,5.196-2.929,7.071l-14.65,14.65
			c-4.324,4.324-3.789,11.482,1.13,15.115l24.964,18.439c1.72,1.271,3.803,1.956,5.941,1.956h48.314
			c2.652,0,5.196,1.054,7.071,2.929l20.158,20.158c1.875,1.875,4.419,2.929,7.071,2.929h34.174c5.523,0,10,4.477,10,10v28.405
			c0,2.652-1.054,5.196-2.929,7.071l-31.17,31.17c-1.875,1.875-4.419,2.929-7.071,2.929H53.563
			C48.04,468.317,43.563,463.84,43.563,458.317z"/>
		<path style="fill:#20B69F;" d="M143.99,362.73h-28.72c-2.13,0-4.22-0.69-5.94-1.96l-24.96-18.44c-4.92-3.63-5.45-10.79-1.13-15.11
			l14.65-14.65c1.87-1.88,2.93-4.42,2.93-7.07v-36.43c0-2.65-1.06-5.2-2.93-7.07l-26.06-26.06c-1.87-1.87-4.42-2.93-7.07-2.93h28.72
			c2.65,0,5.2,1.06,7.07,2.93L126.61,262c1.87,1.87,2.93,4.42,2.93,7.07v36.43c0,2.65-1.06,5.19-2.93,7.07l-14.65,14.65
			c-4.33,4.32-3.79,11.48,1.13,15.11l24.96,18.44C139.77,362.04,141.86,362.73,143.99,362.73z"/>
		<path style="fill:#20B69F;" d="M226.61,388.74h-28.72c-2.65,0-5.2-1.05-7.07-2.93l-20.16-20.15c-1.88-1.88-4.42-2.93-7.07-2.93
			h28.72c2.65,0,5.19,1.05,7.07,2.93l20.16,20.15C221.41,387.69,223.96,388.74,226.61,388.74z"/>
		<path style="fill:#20B69F;" d="M270.78,398.74v28.41c0,2.65-1.05,5.19-2.93,7.07l-31.17,31.17c-1.87,1.87-4.42,2.93-7.07,2.93
			h-28.72c2.66,0,5.2-1.06,7.07-2.93l31.17-31.17c1.88-1.88,2.93-4.42,2.93-7.07v-28.41c0-5.52-4.47-10-10-10h28.72
			C266.3,388.74,270.78,393.22,270.78,398.74z"/>
		<g>
			<circle style="fill:#1C96F9;" cx="101.79" cy="410.21" r="24.651"/>
			<g>
				<path style="fill:#1785F8;" d="M126.44,410.21c0,13.61-11.04,24.65-24.65,24.65c-3.48,0-6.8-0.72-9.8-2.03
					c8.73-3.79,14.84-12.49,14.84-22.62c0-10.13-6.11-18.83-14.84-22.62c3-1.31,6.32-2.03,9.8-2.03
					C115.4,385.56,126.44,396.6,126.44,410.21z"/>
			</g>
			<circle style="fill:#FB5FA7;" cx="410.21" cy="101.79" r="24.651"/>
			<path style="fill:#FB4297;" d="M434.86,101.79c0,13.61-11.04,24.65-24.65,24.65c-3.48,0-6.8-0.72-9.8-2.03
				c8.73-3.79,14.84-12.49,14.84-22.62c0-10.13-6.11-18.83-14.84-22.62c3-1.31,6.32-2.03,9.8-2.03
				C423.82,77.14,434.86,88.18,434.86,101.79z"/>
		</g>
	</g>
	<g>
		<path d="M484.5,0h-457C12.336,0,0,12.336,0,27.5v457C0,499.664,12.336,512,27.5,512h290.708c4.143,0,7.5-3.358,7.5-7.5
			s-3.357-7.5-7.5-7.5H27.5c-6.893,0-12.5-5.607-12.5-12.5v-457C15,20.607,20.607,15,27.5,15h457c6.893,0,12.5,5.607,12.5,12.5v457
			c0,6.893-5.607,12.5-12.5,12.5H351.199c-4.143,0-7.5,3.358-7.5,7.5s3.357,7.5,7.5,7.5H484.5c15.164,0,27.5-12.336,27.5-27.5v-457
			C512,12.336,499.664,0,484.5,0z"/>
		<path d="M261.824,145.128c-1.729,5.51-0.631,11.511,2.938,16.051l12.048,15.333c3.593,4.573,9.207,7.059,15.004,6.645
			l52.658-3.752c0.727-0.052,1.433,0.213,1.945,0.726l20.627,20.627c3.306,3.305,7.7,5.125,12.375,5.125h17.699
			c1.065,0,2.015,0.676,2.363,1.683l23.218,67.141c2.437,7.046,9.083,11.78,16.539,11.78h19.198c9.649,0,17.5-7.851,17.5-17.5
			V53.683c0-9.649-7.851-17.5-17.5-17.5h-76.829c-4.143,0-7.5,3.358-7.5,7.5s3.357,7.5,7.5,7.5h76.829c1.379,0,2.5,1.122,2.5,2.5
			v215.305c0,1.378-1.121,2.5-2.5,2.5h-19.198c-1.065,0-2.015-0.676-2.363-1.683l-23.218-67.141
			c-2.437-7.046-9.083-11.78-16.539-11.78h-17.699c-0.658,0-1.303-0.267-1.768-0.732l-20.628-20.628
			c-3.591-3.59-8.557-5.445-13.618-5.081l-52.657,3.752c-0.833,0.058-1.631-0.297-2.144-0.95l-12.049-15.334
			c-0.509-0.648-0.666-1.505-0.419-2.292l11.127-35.465c0.929-2.959,1.053-6.123,0.359-9.148l-7.519-32.811
			c-0.183-0.797,0.036-1.634,0.587-2.239l16.316-17.954c0.473-0.521,1.146-0.819,1.85-0.819h49.76c4.143,0,7.5-3.358,7.5-7.5
			s-3.357-7.5-7.5-7.5h-49.76c-4.921,0-9.642,2.089-12.951,5.731l-16.315,17.954c-3.852,4.237-5.387,10.099-4.107,15.679
			l7.519,32.811c0.1,0.433,0.082,0.884-0.051,1.306L261.824,145.128z"/>
		<path d="M43.563,363.439c-4.143,0-7.5,3.358-7.5,7.5v87.377c0,9.649,7.851,17.5,17.5,17.5h176.049
			c4.674,0,9.068-1.82,12.375-5.126l31.17-31.17c3.305-3.305,5.125-7.7,5.125-12.374v-28.405c0-9.649-7.851-17.5-17.5-17.5h-34.175
			c-0.658,0-1.302-0.267-1.767-0.732l-20.158-20.157c-3.305-3.306-7.7-5.126-12.375-5.126h-48.313c-0.539,0-1.053-0.169-1.485-0.489
			l-24.964-18.44c-0.803-0.592-0.977-1.397-1.008-1.824c-0.032-0.427,0.02-1.248,0.726-1.954l14.648-14.649
			c3.306-3.305,5.126-7.7,5.126-12.375v-36.427c0-4.676-1.82-9.07-5.125-12.375l-26.058-26.058c-3.306-3.305-7.7-5.125-12.374-5.125
			H53.563c-9.649,0-17.5,7.851-17.5,17.5v94.937c0,4.142,3.357,7.5,7.5,7.5s7.5-3.358,7.5-7.5v-94.937c0-1.378,1.121-2.5,2.5-2.5
			H93.48c0.668,0,1.296,0.26,1.768,0.732l26.058,26.058c0.472,0.471,0.731,1.099,0.731,1.767v36.427c0,0.668-0.26,1.295-0.732,1.768
			l-14.648,14.649c-3.607,3.606-5.458,8.592-5.078,13.679c0.381,5.087,2.952,9.742,7.055,12.772l24.965,18.44
			c3.032,2.239,6.628,3.422,10.396,3.422h48.313c0.658,0,1.303,0.267,1.768,0.732l20.158,20.158c3.306,3.305,7.7,5.125,12.374,5.125
			h34.175c1.379,0,2.5,1.122,2.5,2.5v28.405c0,0.668-0.26,1.295-0.732,1.768l-31.169,31.169c-0.473,0.473-1.101,0.733-1.769,0.733
			H53.563c-1.379,0-2.5-1.122-2.5-2.5v-87.377C51.063,366.797,47.706,363.439,43.563,363.439z"/>
		<path d="M233.956,43.454H55.729c-4.143,0-7.5,3.358-7.5,7.5v146.129c0,4.142,3.357,7.5,7.5,7.5s7.5-3.358,7.5-7.5V58.454H215.85
			l-12.628,12.628c-2.929,2.929-2.929,7.678,0,10.606c2.93,2.929,7.678,2.929,10.607,0l25.431-25.431
			c2.145-2.145,2.786-5.371,1.625-8.173C239.725,45.281,236.989,43.454,233.956,43.454z"/>
		<path d="M296.044,468.546h160.228c4.143,0,7.5-3.358,7.5-7.5V317.917c0-4.142-3.357-7.5-7.5-7.5s-7.5,3.358-7.5,7.5v135.629
			H314.15l12.68-12.679c2.929-2.929,2.929-7.678,0-10.606c-2.93-2.929-7.678-2.929-10.607,0l-25.482,25.482
			c-2.145,2.145-2.786,5.371-1.625,8.173C290.275,466.719,293.011,468.546,296.044,468.546z"/>
		<path d="M189.755,275.22c0-4.142-3.357-7.5-7.5-7.5s-7.5,3.358-7.5,7.5v36.038c0,3.034,1.827,5.768,4.63,6.929
			c0.928,0.384,1.902,0.571,2.868,0.571c1.952,0,3.87-0.762,5.306-2.197l101.378-101.378c2.929-2.929,2.929-7.678,0-10.606
			c-2.93-2.929-7.678-2.929-10.607,0l-88.574,88.575V275.22z"/>
		<path d="M294.62,264.404c0,4.142,3.357,7.5,7.5,7.5s7.5-3.358,7.5-7.5v-36.037c0-3.034-1.827-5.768-4.63-6.929
			c-2.804-1.161-6.028-0.518-8.174,1.626L195.439,324.441c-2.929,2.929-2.929,7.678,0,10.606c1.465,1.464,3.385,2.197,5.304,2.197
			s3.839-0.732,5.304-2.197l88.573-88.574V264.404z"/>
		<path d="M200.743,421.713c4.143,0,7.5-3.358,7.5-7.5s-3.357-7.5-7.5-7.5h-7.603c-4.143,0-7.5,3.358-7.5,7.5s3.357,7.5,7.5,7.5
			H200.743z"/>
		<path d="M175.839,440.827c4.143,0,7.5-3.358,7.5-7.5s-3.357-7.5-7.5-7.5h-7.602c-4.143,0-7.5,3.358-7.5,7.5s3.357,7.5,7.5,7.5
			H175.839z"/>
		<path d="M91.837,300.851c4.143,0,7.5-3.358,7.5-7.5s-3.357-7.5-7.5-7.5h-7.602c-4.143,0-7.5,3.358-7.5,7.5s3.357,7.5,7.5,7.5
			H91.837z"/>
		<path d="M333.415,121.774h7.603c4.143,0,7.5-3.358,7.5-7.5s-3.357-7.5-7.5-7.5h-7.603c-4.143,0-7.5,3.358-7.5,7.5
			S329.272,121.774,333.415,121.774z"/>
		<path d="M420.709,163.138c-4.143,0-7.5,3.358-7.5,7.5s3.357,7.5,7.5,7.5h7.602c4.143,0,7.5-3.358,7.5-7.5s-3.357-7.5-7.5-7.5
			H420.709z"/>
		<path d="M321.677,76.366h-7.602c-4.143,0-7.5,3.358-7.5,7.5s3.357,7.5,7.5,7.5h7.602c4.143,0,7.5-3.358,7.5-7.5
			S325.819,76.366,321.677,76.366z"/>
		<path d="M101.79,442.361c17.729,0,32.151-14.423,32.151-32.151c0-17.728-14.423-32.151-32.151-32.151
			c-17.728,0-32.15,14.423-32.15,32.151C69.64,427.938,84.063,442.361,101.79,442.361z M101.79,393.059
			c9.457,0,17.151,7.694,17.151,17.151c0,9.458-7.694,17.151-17.151,17.151s-17.15-7.694-17.15-17.151
			C84.64,400.752,92.333,393.059,101.79,393.059z"/>
		<path d="M410.21,69.639c-17.729,0-32.151,14.423-32.151,32.151c0,17.728,14.423,32.151,32.151,32.151
			c17.728,0,32.15-14.423,32.15-32.151C442.36,84.062,427.938,69.639,410.21,69.639z M410.21,118.941
			c-9.457,0-17.151-7.694-17.151-17.151c0-9.458,7.694-17.151,17.151-17.151s17.15,7.694,17.15,17.151
			C427.36,111.248,419.667,118.941,410.21,118.941z"/>
	</g>
</g>
<g>
</g>
<g>
</g>
<g>
</g>
<g>
</g>
<g>
</g>
<g>
</g>
<g>
</g>
<g>
</g>
<g>
</g>
<g>
</g>
<g>
</g>
<g>
</g>
<g>
</g>
<g>
</g>
<g>
</g>
</svg>
