<svg width="183" height="50" viewBox="0 0 183 50" fill="none" xmlns="http://www.w3.org/2000/svg">
  <g id="e67ce2c09d02ad7cc68a5c84165030c8">
    <g id="7b8ef6cc222d19d46bdbff9036a7b4b1" clip-path="url(#clip0_1_680)">
      <g id="206221c224a6e7e4bb7a5ce13c36e6b4">
        <g id="41d70e345b224203aeb1055e0265950d">
          <path id="0202399a64f285f03fc6bad80cd58eae" d="M10.0843 2.53887L0 15.585L13.0461 8.74438L15.8669 5.57184L11.5652 0L10.0843 2.53887Z" fill="#F49746"></path>
          <path id="ebc0f01875511e0a28e8086a918284e9" d="M0.353027 22.8499L0.77594 35.3321L6.77069 42.8775L4.08945 25.8116L0.353027 22.8499Z" fill="#F49746"></path>
          <path id="f818a6a104ce3e5ee4d6446abb7f3c3c" d="M6.77059 42.8775L18.6889 50L20.3806 42.4546L16.7837 39.2108L11.6362 19.3228L4.08936 25.8116L6.77059 42.8775Z" fill="#F49746"></path>
          <path id="114063223da9ddf7509fdd9ebd8a070e" d="M18.689 50L32.2291 45.6271L35.6138 37.5178L26.8681 30.5363L20.3806 42.4546L18.689 50Z" fill="#F49746"></path>
          <path id="e5987e268dea9122fa8178d7c7c0b889" d="M11.6364 19.3228L26.8682 30.5363L35.614 37.5178L31.805 14.8103L21.7207 11.3544L13.0461 8.74438L11.6364 19.3228L9.28175 21.348L4.08955 25.8116L0.353125 22.8499L0 15.585L11.6364 19.3228Z" fill="#F49746"></path>
          <path id="a112626a546c3c3b8d76f277db35dc5a" d="M11.5654 0L18.265 4.86559L29.3375 9.0975L31.8052 14.8103L15.8671 5.57184L11.5654 0Z" fill="#F49746"></path>
          <path id="5e8a75e196ccc22ae4d72fd2cee81fe8" d="M11.6362 19.3228L16.7838 39.2108L20.3806 42.4546L26.8681 30.5362L22.0025 11.4242" fill="#F49746"></path>
          <path id="ed55691682457b28731ae3b3f1871cdc" d="M11.6362 19.3228L18.1949 14.1753L23.2726 16.502L12.6942 11.7062" fill="#F49746"></path>
          <path id="f7ae2a46d8e592eb91ab95960b73b10c" d="M0 15.585L13.0461 8.74438L11.6364 19.3228L0 15.585Z" fill="#F49746"></path>
          <path id="c2b875f5ebabd33c8a402d671f652b0c" d="M15.8667 5.57184L13.0459 8.74438L31.8048 14.8103L15.8667 5.57184Z" fill="#F49746"></path>
          <path id="0ce5df0be651d69aff4e6483a590a5e3" d="M16.6835 28.9953C16.4463 29.2187 16.1922 29.428 15.9717 29.6681C15.5167 30.1636 15.0268 30.6381 14.6457 31.1881C14.1516 31.9027 14.0177 32.7597 13.9269 33.6125C13.8767 34.0954 13.8474 34.5797 13.7874 35.0599C13.7427 35.2004 13.6758 35.3328 13.5892 35.4521C13.4496 35.3823 13.2723 35.3432 13.1704 35.2343C12.9039 34.9329 12.659 34.6129 12.4377 34.2769C11.9248 33.4771 11.2436 32.7988 10.4417 32.2893C10.1726 32.1185 9.92228 31.9197 9.69501 31.6961C9.64788 31.6405 9.61387 31.575 9.59551 31.5044C9.57715 31.4339 9.5749 31.3601 9.58894 31.2886C9.61685 31.1978 9.7997 31.1155 9.92392 31.0973C10.6595 30.9843 11.4062 30.9257 12.1348 30.7791C12.4942 30.7092 12.8303 30.5498 13.1118 30.3157C13.8278 29.682 14.4964 28.9911 15.1775 28.317C15.2674 28.205 15.3459 28.0844 15.412 27.9569C15.0463 27.9332 14.7546 27.8997 14.4629 27.8997C13.303 27.8997 12.1432 27.8997 10.9833 27.9178C10.7859 27.92 10.5929 27.976 10.425 28.0797C9.68245 28.585 8.96364 29.1251 8.2211 29.6304C8.02011 29.77 7.72142 29.95 7.54416 29.8886C7.23291 29.7811 7.31386 29.4141 7.3362 29.1349C7.35186 28.8994 7.38877 28.6659 7.44646 28.437C7.74096 27.3525 7.55951 26.275 7.42134 25.1947C7.38679 24.9609 7.36953 24.7248 7.36969 24.4885C7.37807 24.2093 7.52462 24.1353 7.77306 24.2651C7.91837 24.3457 8.05617 24.4391 8.18481 24.5443C8.47234 24.7718 8.75986 25.0007 9.03622 25.2422C9.89042 25.9861 10.8507 26.4034 12.0134 26.3281C12.862 26.2736 13.7162 26.3281 14.569 26.3127C14.7979 26.3127 15.0268 26.2639 15.3199 26.2317C15.2612 26.1193 15.1926 26.0123 15.1147 25.9121C14.4168 25.2073 13.7357 24.4759 12.989 23.8185C12.6987 23.5659 12.266 23.4263 11.8724 23.3495C11.2359 23.2225 10.5799 23.2002 9.93648 23.1067C9.7969 23.0871 9.6015 22.9671 9.57358 22.8624C9.54567 22.7577 9.65175 22.5539 9.75782 22.4604C10.5032 21.8058 11.2931 21.2043 12.0064 20.5064C12.407 20.117 12.6638 19.5838 13.0169 19.1413C13.1565 18.9697 13.3812 18.8706 13.5752 18.7394C13.6682 18.9331 13.7403 19.1361 13.7901 19.3451C13.8948 20.1072 13.9297 20.8804 14.0693 21.6341C14.1261 22.0185 14.2798 22.3822 14.5159 22.6907C15.1315 23.4081 15.8182 24.0628 16.4784 24.7411C16.5603 24.8083 16.6471 24.8694 16.738 24.9239C16.7762 24.6929 16.8014 24.4599 16.8133 24.2261C16.805 22.8526 16.8022 21.4792 16.7603 20.1072C16.7473 19.8021 16.6571 19.5053 16.4979 19.2446C16.0666 18.5467 15.5725 17.9005 15.1287 17.2152C15.01 17.0338 14.9807 16.7965 14.9109 16.5815C15.1183 16.5399 15.329 16.5166 15.5404 16.5117C16.5174 16.5732 17.4945 16.6932 18.4715 16.7099C18.9586 16.7197 19.4485 16.5369 19.937 16.4755C20.1185 16.4517 20.3111 16.5299 20.4953 16.562C20.4577 16.7574 20.4758 16.9933 20.3697 17.1426C19.9147 17.7889 19.4206 18.41 18.9447 19.0422C18.6394 19.4494 18.4908 19.9527 18.5259 20.4603C18.572 21.7263 18.5594 22.9936 18.5748 24.2596C18.5871 24.421 18.6076 24.5817 18.6362 24.7411C18.7953 24.6085 18.8958 24.5345 18.9851 24.4494C20.5903 22.9085 22.1958 21.3676 23.8019 19.8266C23.8925 19.7333 23.9906 19.6474 24.095 19.5698C24.4258 19.3395 24.6672 19.3954 24.9911 19.7387C25.2423 20.0053 25.1865 20.2524 24.9659 20.4896C24.3281 21.1735 23.6902 21.8575 23.0454 22.5344C21.9818 23.651 20.9164 24.7611 19.8491 25.8647C19.7695 25.9484 19.7012 26.0419 19.57 26.2038C19.7547 26.2366 19.9411 26.2589 20.1283 26.2708C22.501 26.2904 24.8864 26.3141 27.2647 26.3099C27.6123 26.3099 27.7658 26.4495 27.8328 26.744C27.8727 26.9047 27.8919 27.0698 27.89 27.2353C27.8719 27.7754 27.7505 27.8801 27.2215 27.8829C24.9603 27.8969 22.6997 27.9127 20.4395 27.9304C20.2692 27.9304 20.0975 27.9611 19.8351 27.9862C19.9747 28.1565 20.0459 28.257 20.131 28.3435C21.718 29.9724 23.2952 31.6082 24.9003 33.2161C25.1795 33.4952 25.1558 33.7102 24.9911 33.9907C24.953 34.0503 24.9115 34.1076 24.8668 34.1624C24.4355 34.7207 24.3015 34.7542 23.7642 34.2922C23.1989 33.8079 22.6643 33.2873 22.1256 32.7722C21.0718 31.7673 20.0319 30.754 18.9754 29.7462C18.893 29.6667 18.8009 29.5983 18.6432 29.4671C18.6139 29.7058 18.5804 29.8635 18.5776 30.0254C18.5427 32.0492 18.5148 34.0731 18.4785 36.0969C18.4699 36.345 18.4437 36.5922 18.4003 36.8367C18.3375 37.2303 18.1002 37.367 17.5726 37.3349C17.1106 37.3056 16.9878 37.2093 16.978 36.7655C16.9306 34.5532 16.8957 32.3396 16.8538 30.1259C16.8538 29.763 16.8245 29.4015 16.8092 29.04L16.6835 28.9953Z" fill="#F49746"></path>
          <path id="49f512f74fba7736a79af34aed9d8fa3" d="M10.0843 2.53887L0 15.585L13.0461 8.74438L15.8669 5.57184L11.5652 0L10.0843 2.53887Z" fill="url(#23cde3b08f9cbb3e696256f0493e5ea5)"></path>
          <path id="193e4a6f6425b5ef28740b5045191d28" d="M0.353027 22.8499L0.77594 35.3321L6.77069 42.8775L4.08945 25.8116L0.353027 22.8499Z" fill="url(#5bae8180ab6c42a35a4c70097dfbfaa3)"></path>
          <path id="afffcb203b8a0405b67ced04cf282071" d="M6.77059 42.8775L18.6889 50L20.3806 42.4546L16.7837 39.2108L11.6362 19.3228L4.08936 25.8116L6.77059 42.8775Z" fill="url(#84ad59b1ae6fcdb6d489df1bd5ea3f0d)"></path>
          <path id="cc8b9777d4220b700e7c4152ce165052" d="M18.689 50L32.2291 45.6271L35.6138 37.5178L26.8681 30.5363L20.3806 42.4546L18.689 50Z" fill="url(#8e942fec16540ffa7ce4eb0e345ee4ae)"></path>
          <path id="e89d0579d9ea5cf7ad5a78f50fc03aa6" d="M11.6364 19.3228L26.8682 30.5363L35.614 37.5178L31.805 14.8103L21.7207 11.3544L13.0461 8.74438L11.6364 19.3228L9.28175 21.348L4.08955 25.8116L0.353125 22.8499L0 15.585L11.6364 19.3228Z" fill="url(#407ea84603c4f9a0e86be0ddcee4cdd4)"></path>
          <path id="069ce1775da435d8d4c202daa304e48b" d="M11.5654 0L18.265 4.86559L29.3375 9.0975L31.8052 14.8103L15.8671 5.57184L11.5654 0Z" fill="url(#56a16ef1f05f575dd513364ff7a2edd3)"></path>
          <path id="7028e5ceef34e244ab0e3fcfd2017ad4" d="M11.6362 19.3228L16.7838 39.2108L20.3806 42.4546L26.8681 30.5362L22.0025 11.4242" fill="url(#08467e4315a11751a435bf4b35e18d7c)"></path>
          <path id="e3e7f36f59af020e521e8879eb1f4eda" d="M11.6362 19.3228L18.1949 14.1753L23.2726 16.502L12.6942 11.7062" fill="url(#1c4c9b43a96d302e75e232f2087461e4)"></path>
          <path id="3742540221d29eaa2d63cba7f69ad73d" d="M0 15.585L13.0461 8.74438L11.6364 19.3228L0 15.585Z" fill="url(#da56fbda567c49176347d744d5d8ccbd)"></path>
          <path id="56cf91395b134993e6c53bc0d1effff0" d="M15.8667 5.57184L13.0459 8.74438L31.8048 14.8103L15.8667 5.57184Z" fill="url(#a32369a89ac13787d7fa7217477c67ab)"></path>
          <path id="149b7c790db48a6c278f00ec9fae870d" d="M16.6835 28.9953C16.4463 29.2187 16.1922 29.428 15.9717 29.6681C15.5167 30.1636 15.0268 30.6381 14.6457 31.1881C14.1516 31.9027 14.0177 32.7597 13.9269 33.6125C13.8767 34.0954 13.8474 34.5797 13.7874 35.0599C13.7427 35.2004 13.6758 35.3328 13.5892 35.4521C13.4496 35.3823 13.2723 35.3432 13.1704 35.2343C12.9039 34.9329 12.659 34.6129 12.4377 34.2769C11.9248 33.4771 11.2436 32.7988 10.4417 32.2893C10.1726 32.1185 9.92228 31.9197 9.69501 31.6961C9.64788 31.6405 9.61387 31.575 9.59551 31.5044C9.57715 31.4339 9.5749 31.3601 9.58894 31.2886C9.61685 31.1978 9.7997 31.1155 9.92392 31.0973C10.6595 30.9843 11.4062 30.9257 12.1348 30.7791C12.4942 30.7092 12.8303 30.5498 13.1118 30.3157C13.8278 29.682 14.4964 28.9911 15.1775 28.317C15.2674 28.205 15.3459 28.0844 15.412 27.9569C15.0463 27.9332 14.7546 27.8997 14.4629 27.8997C13.303 27.8997 12.1432 27.8997 10.9833 27.9178C10.7859 27.92 10.5929 27.976 10.425 28.0797C9.68245 28.585 8.96364 29.1251 8.2211 29.6304C8.02011 29.77 7.72142 29.95 7.54416 29.8886C7.23291 29.7811 7.31386 29.4141 7.3362 29.1349C7.35186 28.8994 7.38877 28.6659 7.44646 28.437C7.74096 27.3525 7.55951 26.275 7.42134 25.1947C7.38679 24.9609 7.36953 24.7248 7.36969 24.4885C7.37807 24.2093 7.52462 24.1353 7.77306 24.2651C7.91837 24.3457 8.05617 24.4391 8.18481 24.5443C8.47234 24.7718 8.75986 25.0007 9.03622 25.2422C9.89042 25.9861 10.8507 26.4034 12.0134 26.3281C12.862 26.2736 13.7162 26.3281 14.569 26.3127C14.7979 26.3127 15.0268 26.2639 15.3199 26.2317C15.2612 26.1193 15.1926 26.0123 15.1147 25.9121C14.4168 25.2073 13.7357 24.4759 12.989 23.8185C12.6987 23.5659 12.266 23.4263 11.8724 23.3495C11.2359 23.2225 10.5799 23.2002 9.93648 23.1067C9.7969 23.0871 9.6015 22.9671 9.57358 22.8624C9.54567 22.7577 9.65175 22.5539 9.75782 22.4604C10.5032 21.8058 11.2931 21.2043 12.0064 20.5064C12.407 20.117 12.6638 19.5838 13.0169 19.1413C13.1565 18.9697 13.3812 18.8706 13.5752 18.7394C13.6682 18.9331 13.7403 19.1361 13.7901 19.3451C13.8948 20.1072 13.9297 20.8804 14.0693 21.6341C14.1261 22.0185 14.2798 22.3822 14.5159 22.6907C15.1315 23.4081 15.8182 24.0628 16.4784 24.7411C16.5603 24.8083 16.6471 24.8694 16.738 24.9239C16.7762 24.6929 16.8014 24.4599 16.8133 24.2261C16.805 22.8526 16.8022 21.4792 16.7603 20.1072C16.7473 19.8021 16.6571 19.5053 16.4979 19.2446C16.0666 18.5467 15.5725 17.9005 15.1287 17.2152C15.01 17.0338 14.9807 16.7965 14.9109 16.5815C15.1183 16.5399 15.329 16.5166 15.5404 16.5117C16.5174 16.5732 17.4945 16.6932 18.4715 16.7099C18.9586 16.7197 19.4485 16.5369 19.937 16.4755C20.1185 16.4517 20.3111 16.5299 20.4953 16.562C20.4577 16.7574 20.4758 16.9933 20.3697 17.1426C19.9147 17.7889 19.4206 18.41 18.9447 19.0422C18.6394 19.4494 18.4908 19.9527 18.5259 20.4603C18.572 21.7263 18.5594 22.9936 18.5748 24.2596C18.5871 24.421 18.6076 24.5817 18.6362 24.7411C18.7953 24.6085 18.8958 24.5345 18.9851 24.4494C20.5903 22.9085 22.1958 21.3676 23.8019 19.8266C23.8925 19.7333 23.9906 19.6474 24.095 19.5698C24.4258 19.3395 24.6672 19.3954 24.9911 19.7387C25.2423 20.0053 25.1865 20.2524 24.9659 20.4896C24.3281 21.1735 23.6902 21.8575 23.0454 22.5344C21.9818 23.651 20.9164 24.7611 19.8491 25.8647C19.7695 25.9484 19.7012 26.0419 19.57 26.2038C19.7547 26.2366 19.9411 26.2589 20.1283 26.2708C22.501 26.2904 24.8864 26.3141 27.2647 26.3099C27.6123 26.3099 27.7658 26.4495 27.8328 26.744C27.8727 26.9047 27.8919 27.0698 27.89 27.2353C27.8719 27.7754 27.7505 27.8801 27.2215 27.8829C24.9603 27.8969 22.6997 27.9127 20.4395 27.9304C20.2692 27.9304 20.0975 27.9611 19.8351 27.9862C19.9747 28.1565 20.0459 28.257 20.131 28.3435C21.718 29.9724 23.2952 31.6082 24.9003 33.2161C25.1795 33.4952 25.1558 33.7102 24.9911 33.9907C24.953 34.0503 24.9115 34.1076 24.8668 34.1624C24.4355 34.7207 24.3015 34.7542 23.7642 34.2922C23.1989 33.8079 22.6643 33.2873 22.1256 32.7722C21.0718 31.7673 20.0319 30.754 18.9754 29.7462C18.893 29.6667 18.8009 29.5983 18.6432 29.4671C18.6139 29.7058 18.5804 29.8635 18.5776 30.0254C18.5427 32.0492 18.5148 34.0731 18.4785 36.0969C18.4699 36.345 18.4437 36.5922 18.4003 36.8367C18.3375 37.2303 18.1002 37.367 17.5726 37.3349C17.1106 37.3056 16.9878 37.2093 16.978 36.7655C16.9306 34.5532 16.8957 32.3396 16.8538 30.1259C16.8538 29.763 16.8245 29.4015 16.8092 29.04L16.6835 28.9953Z" fill="white"></path>
        </g>
      </g>
    </g>
    <g id="c3a94f48293578105d2b8a5d74d6995a">
      <path d="M61.096 40.428H49.432V38.952L52.816 36.216V15.12L49 13.932L49.9 12.132H61.564V13.608L58.144 16.344V37.404L61.996 38.628L61.096 40.428Z" fill="white"></path>
      <path d="M76.8376 25.128C75.7816 25.128 74.7016 25.68 73.5976 26.784V37.116L78.8176 38.628L77.9176 40.428H65.3536V38.952L68.5576 36.36V27L65.3536 25.056V23.58L72.0496 20.52L73.2736 24.768L76.8376 21.132C77.2696 20.94 77.8936 20.844 78.7096 20.844C79.6936 20.844 80.5456 21.084 81.2656 21.564C81.9856 22.044 82.5136 22.716 82.8496 23.58L80.0416 27.108H78.3136C78.2416 26.412 78.0856 25.92 77.8456 25.632C77.6296 25.32 77.2936 25.164 76.8376 25.164V25.128Z" fill="white"></path>
      <path d="M95.5238 38.628L94.6238 40.428H84.0398V38.952L87.2438 36.36V15.192L84.0398 12.996V11.52L90.5558 9H92.2838V37.44L95.5238 38.628ZM107.044 40.428H100.42L94.0118 30.852L100.6 25.452L96.7478 23.004L97.6478 21.204H106.972V22.68L98.9798 29.304L104.56 37.332L107.944 38.628L107.044 40.428Z" fill="white"></path>
      <path d="M129.797 40.428H122.417V37.296L118.349 40.5C117.869 40.692 117.269 40.788 116.549 40.788C114.389 40.788 112.817 40.26 111.833 39.204C110.873 38.124 110.393 36.828 110.393 35.316C110.393 34.428 110.693 33.564 111.293 32.724C111.917 31.86 112.793 31.044 113.921 30.276H122.417V28.62C122.417 25.884 120.953 24.516 118.025 24.516C116.489 24.516 114.521 25.32 112.121 26.928L111.041 25.308L116.153 21.24C117.161 20.976 118.421 20.844 119.933 20.844C122.309 20.844 124.157 21.408 125.477 22.536C126.797 23.664 127.457 25.308 127.457 27.468V37.368L130.697 38.628L129.797 40.428ZM117.953 37.008C119.297 37.008 120.785 36.396 122.417 35.172V32.112H116.261C115.781 32.688 115.541 33.384 115.541 34.2C115.541 34.992 115.757 35.664 116.189 36.216C116.645 36.744 117.233 37.008 117.953 37.008Z" fill="white"></path>
      <path d="M143.069 40.428H132.485V38.952L135.689 36.36V15.192L132.485 12.996V11.52L139.001 9H140.729V37.44L143.969 38.628L143.069 40.428Z" fill="white"></path>
      <path d="M156.639 40.428H146.055V38.952L149.259 36.36V15.192L146.055 12.996V11.52L152.571 9H154.299V37.44L157.539 38.628L156.639 40.428Z" fill="white"></path>
      <path d="M182.09 40.428H174.71V36.936L170.426 40.5C169.922 40.692 169.226 40.788 168.338 40.788C166.634 40.788 165.278 40.296 164.27 39.312C163.262 38.304 162.758 36.948 162.758 35.244V27L159.554 25.128V23.652L166.07 20.592H167.798V33.084C167.798 34.356 167.99 35.244 168.374 35.748C168.758 36.228 169.43 36.468 170.39 36.468C171.062 36.468 171.734 36.348 172.406 36.108C173.078 35.868 173.846 35.412 174.71 34.74V27L171.506 25.128V23.652L178.022 20.592H179.75V37.44L182.99 38.628L182.09 40.428Z" fill="white"></path>
    </g>
  </g>
  <defs>
    <linearGradient id="23cde3b08f9cbb3e696256f0493e5ea5" x1="0" y1="7.79248" x2="15.8669" y2="7.79248" gradientUnits="userSpaceOnUse">
      <stop stop-color="#FE5F75"></stop>
      <stop offset="1" stop-color="#FC9842"></stop>
    </linearGradient>
    <linearGradient id="5bae8180ab6c42a35a4c70097dfbfaa3" x1="0.353027" y1="32.863" x2="6.77069" y2="32.863" gradientUnits="userSpaceOnUse">
      <stop stop-color="#FE5F75"></stop>
      <stop offset="1" stop-color="#FC9842"></stop>
    </linearGradient>
    <linearGradient id="84ad59b1ae6fcdb6d489df1bd5ea3f0d" x1="4.09075" y1="34.6621" x2="20.3806" y2="34.6621" gradientUnits="userSpaceOnUse">
      <stop stop-color="#FE5F75"></stop>
      <stop offset="1" stop-color="#FC9842"></stop>
    </linearGradient>
    <linearGradient id="8e942fec16540ffa7ce4eb0e345ee4ae" x1="18.6876" y1="40.2688" x2="35.6138" y2="40.2688" gradientUnits="userSpaceOnUse">
      <stop stop-color="#FE5F75"></stop>
      <stop offset="1" stop-color="#FC9842"></stop>
    </linearGradient>
    <linearGradient id="407ea84603c4f9a0e86be0ddcee4cdd4" x1="0" y1="23.1318" x2="35.614" y2="23.1318" gradientUnits="userSpaceOnUse">
      <stop stop-color="#FE5F75"></stop>
      <stop offset="1" stop-color="#FC9842"></stop>
    </linearGradient>
    <linearGradient id="56a16ef1f05f575dd513364ff7a2edd3" x1="11.5654" y1="7.40446" x2="31.8052" y2="7.40446" gradientUnits="userSpaceOnUse">
      <stop stop-color="#FE5F75"></stop>
      <stop offset="1" stop-color="#FC9842"></stop>
    </linearGradient>
    <linearGradient id="08467e4315a11751a435bf4b35e18d7c" x1="11.6362" y1="26.9394" x2="26.8695" y2="26.9394" gradientUnits="userSpaceOnUse">
      <stop stop-color="#FE5F75"></stop>
      <stop offset="1" stop-color="#FC9842"></stop>
    </linearGradient>
    <linearGradient id="1c4c9b43a96d302e75e232f2087461e4" x1="11.6362" y1="15.5152" x2="23.2726" y2="15.5152" gradientUnits="userSpaceOnUse">
      <stop stop-color="#FE5F75"></stop>
      <stop offset="1" stop-color="#FC9842"></stop>
    </linearGradient>
    <linearGradient id="da56fbda567c49176347d744d5d8ccbd" x1="0" y1="14.0343" x2="13.0461" y2="14.0343" gradientUnits="userSpaceOnUse">
      <stop stop-color="#FE5F75"></stop>
      <stop offset="1" stop-color="#FC9842"></stop>
    </linearGradient>
    <linearGradient id="a32369a89ac13787d7fa7217477c67ab" x1="13.0459" y1="10.1904" x2="31.8048" y2="10.1904" gradientUnits="userSpaceOnUse">
      <stop stop-color="#FE5F75"></stop>
      <stop offset="1" stop-color="#FC9842"></stop>
    </linearGradient>
    <clipPath id="clip0_1_680">
      <rect width="35.614" height="50" fill="white"></rect>
    </clipPath>
  </defs>
</svg>